<svg width="36" height="14" viewBox="0 0 36 14" fill="none" xmlns="http://www.w3.org/2000/svg">
<path d="M0.820546 13.0008C0.700546 13.0008 0.598546 12.9648 0.514546 12.8928C0.442546 12.8088 0.406546 12.7068 0.406546 12.5868V0.832792C0.406546 0.700793 0.442546 0.598793 0.514546 0.526793C0.598546 0.442793 0.700546 0.400793 0.820546 0.400793H5.21255C6.59255 0.400793 7.67255 0.724793 8.45255 1.37279C9.23255 2.02079 9.62255 2.95679 9.62255 4.18079C9.62255 5.09279 9.39455 5.84279 8.93855 6.43079C8.49455 7.01879 7.86455 7.42679 7.04855 7.65479L9.82055 12.4428C9.85655 12.5148 9.87455 12.5808 9.87455 12.6408C9.87455 12.7368 9.83255 12.8208 9.74855 12.8928C9.67655 12.9648 9.59255 13.0008 9.49655 13.0008H8.63255C8.45255 13.0008 8.30855 12.9588 8.20055 12.8748C8.10455 12.7908 8.01455 12.6708 7.93055 12.5148L5.32055 7.94279H2.17055V12.5868C2.17055 12.7068 2.12855 12.8088 2.04455 12.8928C1.96055 12.9648 1.85855 13.0008 1.73855 13.0008H0.820546ZM5.14055 6.41279C6.92855 6.41279 7.82255 5.66279 7.82255 4.16279C7.82255 2.66279 6.92855 1.91279 5.14055 1.91279H2.17055V6.41279H5.14055ZM17.3135 13.1808C15.7655 13.1808 14.5655 12.7668 13.7135 11.9388C12.8735 11.0988 12.4535 9.83279 12.4535 8.14079V0.832792C12.4535 0.700793 12.4895 0.598793 12.5615 0.526793C12.6455 0.442793 12.7475 0.400793 12.8675 0.400793H13.7855C13.9175 0.400793 14.0195 0.442793 14.0915 0.526793C14.1755 0.598793 14.2175 0.700793 14.2175 0.832792V8.17679C14.2175 9.32879 14.4875 10.1928 15.0275 10.7688C15.5675 11.3448 16.3295 11.6328 17.3135 11.6328C18.2975 11.6328 19.0595 11.3448 19.5995 10.7688C20.1395 10.1928 20.4095 9.32879 20.4095 8.17679V0.832792C20.4095 0.700793 20.4455 0.598793 20.5175 0.526793C20.6015 0.442793 20.7035 0.400793 20.8235 0.400793H21.7595C21.8795 0.400793 21.9755 0.442793 22.0475 0.526793C22.1315 0.610793 22.1735 0.712793 22.1735 0.832792V8.14079C22.1735 9.83279 21.7475 11.0988 20.8955 11.9388C20.0555 12.7668 18.8615 13.1808 17.3135 13.1808ZM25.9566 13.0008C25.8366 13.0008 25.7346 12.9648 25.6506 12.8928C25.5786 12.8088 25.5426 12.7068 25.5426 12.5868V0.832792C25.5426 0.700793 25.5786 0.598793 25.6506 0.526793C25.7346 0.442793 25.8366 0.400793 25.9566 0.400793H30.8886C32.1726 0.400793 33.1386 0.706793 33.7866 1.31879C34.4346 1.93079 34.7586 2.73479 34.7586 3.73079C34.7586 4.40279 34.6026 4.96079 34.2906 5.40479C33.9906 5.84879 33.6306 6.17279 33.2106 6.37679C33.7146 6.62879 34.1406 7.01879 34.4886 7.54679C34.8366 8.07479 35.0106 8.68079 35.0106 9.36479C35.0106 10.0368 34.8546 10.6488 34.5426 11.2008C34.2426 11.7528 33.7926 12.1908 33.1926 12.5148C32.5926 12.8388 31.8726 13.0008 31.0326 13.0008H25.9566ZM30.6186 5.72879C31.3746 5.72879 31.9506 5.55479 32.3466 5.20679C32.7546 4.85879 32.9586 4.37279 32.9586 3.74879C32.9586 3.13679 32.7606 2.66879 32.3646 2.34479C31.9686 2.02079 31.3866 1.85879 30.6186 1.85879H27.3066V5.72879H30.6186ZM30.7986 11.5428C31.5546 11.5428 32.1426 11.3388 32.5626 10.9308C32.9946 10.5228 33.2106 10.0008 33.2106 9.36479C33.2106 8.70479 32.9946 8.17679 32.5626 7.78079C32.1426 7.37279 31.5546 7.16879 30.7986 7.16879H27.3066V11.5428H30.7986Z" fill="#D4088C"/>
</svg>
