<svg width="50" height="50" viewBox="0 0 50 50" fill="none" xmlns="http://www.w3.org/2000/svg">
<path d="M49.3784 18.9344C49.2424 18.7939 49.1626 18.6655 49.05 18.4868C48.9914 18.3965 48.928 18.2989 48.8576 18.1942C49.0524 17.9656 49.2165 17.7014 49.3409 17.4111L49.8382 16.2616L48.6137 16.083C48.4073 16.0521 48.0742 15.964 47.6848 15.8593C46.9341 15.6593 45.97 15.4024 44.9191 15.2904C45.278 15.131 45.583 14.843 45.7964 14.4527L45.9982 14.0838C45.9982 14.0838 45.9442 13.5673 45.7472 13.4055C45.8223 13.2459 45.8809 13.0698 45.9208 12.8771L46.0873 12.0536L45.3037 11.7823C45.1819 11.7394 45.0599 11.7085 44.9402 11.6895C44.8956 11.5394 44.83 11.38 44.7408 11.2111L44.2764 10.3471L43.4389 10.8445C43.2301 10.9683 43.0543 11.111 42.9111 11.2706C42.7868 11.2467 42.6531 11.2348 42.5123 11.2348C42.5123 11.2348 42.0339 11.1801 41.506 11.3753L40.8304 10.6636L40.0305 9.79729C39.2822 8.98564 38.2689 8.74532 37.2368 9.14517C36.8427 8.74532 36.228 8.41441 35.2734 8.41441C34.9496 8.41441 34.6657 8.4549 34.4992 8.47635C34.4992 8.47635 33.1856 8.7191 32.4466 9.43074L31.5506 8.99759C30.9501 9.95673 29.9226 10.2614 29.9226 10.2614C29.8522 9.98051 29.7326 9.71874 29.5614 9.47832L29.6201 9.14032C29.6201 9.1308 29.8217 7.98601 30.4364 7.01491L31.506 5.3251L29.9907 5.49881C29.9953 5.34656 29.9884 5.16566 29.9671 4.95146L29.8311 3.63762L28.6441 4.18263C28.5128 4.24215 28.4026 4.30168 28.2994 4.35644L28.0647 3.84948L27.5206 4.13505C27.4666 3.99941 27.3962 3.84473 27.3001 3.66616L26.6738 2.5L25.7847 3.47342C25.6932 3.57333 25.6158 3.66616 25.5501 3.75422L25.0106 3.20921L24.4664 3.75666C24.3983 3.66859 24.3232 3.57576 24.2318 3.47575L23.3334 2.5L22.7047 3.67092C22.6085 3.84948 22.5405 4.00174 22.4865 4.13748L21.9447 3.85181L21.7101 4.35877C21.6069 4.304 21.4967 4.24458 21.3652 4.18263L20.1737 3.64004L20.0422 4.95855C20.0211 5.17042 20.0141 5.34889 20.0188 5.50124L18.5011 5.32753L19.5731 7.01734C20.19 7.98601 20.3871 9.1308 20.3871 9.14032L20.4433 9.47832C20.2722 9.72107 20.1502 9.98295 20.0821 10.2638C20.0821 10.2638 19.111 9.84244 18.4612 8.99759L17.5463 9.44026C16.5025 8.72619 15.8551 8.44781 14.7291 8.41441C13.7744 8.38828 13.1598 8.74532 12.7656 9.14517C11.7312 8.74765 10.7202 8.98806 9.97423 9.79962C9.97423 9.79962 9.48399 10.3399 9.1743 10.666C8.86462 10.9944 8.40721 11.2658 8.40721 11.2658C8.40721 11.2658 7.75749 11.1182 7.08891 11.2729C6.94588 11.1135 6.76754 10.9706 6.55645 10.8445L5.71661 10.3471L5.25452 11.2158C5.16539 11.3824 5.10202 11.5394 5.0598 11.6895C4.94023 11.7085 4.81827 11.7394 4.69631 11.7823L3.91744 12.0583L4.07932 12.8771C4.11915 13.0747 4.17544 13.2507 4.25279 13.4103C4.20828 13.4983 4.16845 13.5911 4.13561 13.6887L4.00427 14.0861L4.20358 14.455C4.41476 14.843 4.71737 15.1334 5.07856 15.2929C4.02533 15.4048 3.06362 15.6618 2.31059 15.8617C1.92356 15.964 1.59044 16.0544 1.384 16.0854L0.154835 16.2663L0.433948 16.909L0.656864 17.4207C0.783443 17.7062 0.95005 17.9704 1.14242 18.1989C1.06965 18.3037 0.759988 18.7963 0.621627 18.9368L0 19.577L0.595865 20.2434C0.670936 20.3243 1.33948 21.036 2.42081 21.0384C2.71641 21.0384 3.00963 20.986 3.30046 20.8813C3.58899 21.3383 3.93152 21.8023 4.24341 22.0308C3.66874 22.7163 3.01432 23.3114 2.08309 23.7612L1.30424 24.1372L1.63966 25.0392C1.85788 25.5843 2.28245 26.1817 3.10345 26.4102C2.92749 26.9433 2.84306 27.4479 2.76801 27.8977C2.59211 28.9664 2.51704 29.4091 1.59044 29.7399L0.757689 30.0351L0.996977 30.8966C1.18934 31.5988 1.47784 32.0629 1.7898 32.3699L1.23626 32.9887C1.23626 32.9887 2.54988 33.9884 3.83761 34.1097C3.85646 34.1121 4.95421 34.1835 5.44684 33.5457C5.64395 34.2691 5.95584 34.9356 6.23977 35.5401C6.82144 36.7826 7.13112 37.518 6.74169 38.1891L5.86202 39.7029L7.59092 39.6291C8.34623 39.5982 9.04765 39.5506 9.65516 39.3982C9.65516 39.4316 9.65286 39.4626 9.65047 39.4935L9.50974 40.793L11.0251 40.4692C11.1846 40.4217 11.3348 40.3574 11.4708 40.2837C12.409 41.3976 14.0042 42.2663 16.153 42.2663H16.2773L13.8072 43.2944L15.6064 44.2441C16.791 44.87 18.107 45.3937 19.6083 45.8387L19.3995 46.5694L20.3026 46.8383C20.8234 46.9931 22.7071 47.5 25.0012 47.5C27.2954 47.5 29.1767 46.9931 29.6997 46.8383L30.6006 46.5694L30.3917 45.8412C31.8954 45.3961 33.2114 44.8724 34.396 44.2465L36.1952 43.2967L33.7227 42.2686H33.8472C35.9958 42.2686 37.5885 41.4 38.527 40.286C38.663 40.3598 38.8131 40.4241 38.9726 40.4717L40.4879 40.7954L40.3496 39.4983C40.3472 39.4673 40.3449 39.434 40.3449 39.4006C40.9501 39.5529 41.6538 39.5982 42.4068 39.6315L44.1356 39.7052L43.2606 38.1939C42.8689 37.5228 43.1808 36.7874 43.7604 35.545C44.0441 34.9404 44.3561 34.2739 44.5532 33.5505C44.8863 33.8074 45.2452 33.9622 45.6018 34.0431C45.6018 34.0431 45.8786 34.1263 46.1436 34.1335C46.9083 34.1573 47.2907 33.9361 47.8161 33.6004L48.7708 32.991L48.2125 32.3723C48.5246 32.0677 48.813 31.6035 49.0055 30.9037L49.2471 30.0399L48.412 29.7446C47.483 29.4138 47.4103 28.9712 47.2344 27.9025C47.1594 27.4526 47.0772 26.9457 46.8989 26.415C47.72 26.1841 48.1422 25.5866 48.3603 25.044L48.6935 24.1396L47.9146 23.7636C46.9833 23.3137 46.3289 22.7186 45.7519 22.0332C46.0661 21.8048 46.4087 21.3407 46.6996 20.8837C46.988 20.9884 47.2813 21.0384 47.5793 21.0408C48.6606 21.0408 49.3315 20.3291 49.4043 20.2482L50 19.5817L49.3784 18.9344Z" fill="white"/>
<path fill-rule="evenodd" clip-rule="evenodd" d="M17.3773 30.6635V23.4042C17.3773 22.7282 17.185 22.0523 16.9551 21.431H22.5076C23.0166 22.1404 23.9408 22.6163 25.0011 22.6163C26.0568 22.6163 26.9809 22.1404 27.4923 21.431H33.0447C32.8101 22.0546 32.6202 22.7282 32.6202 23.4042V30.6635H17.3773ZM24.9988 40.5836C24.2223 39.8006 23.6687 39.7149 21.5763 39.7149C19.0757 39.7149 17.3773 38.2273 17.3773 35.8496V31.0894H32.6179V35.8496C32.6179 38.2273 30.9218 39.7149 28.4165 39.7149C26.3264 39.7125 25.7728 39.8006 24.9988 40.5836Z" fill="#FFDD2D"/>
<path d="M18.2623 41.481V42.9304L17.0215 43.4374C18.07 43.9205 19.372 44.4013 20.9014 44.7559L21.6051 42.4305C20.1038 42.1187 19.0576 41.7927 18.2623 41.481Z" fill="white"/>
<path d="M24.9987 43.4446C23.5325 43.4446 22.2986 43.2899 21.806 43.1757L21.0625 45.6153C22.2306 45.9056 23.5982 46.1198 24.9987 46.1198C26.3943 46.1198 27.7619 45.908 28.9348 45.6153L28.1889 43.1757C27.6963 43.2922 26.4671 43.4446 24.9987 43.4446Z" fill="white"/>
<path d="M31.7363 41.481C30.9387 41.7927 29.8948 42.1164 28.3936 42.433L29.0996 44.7583C30.6314 44.4037 31.9286 43.9229 32.9771 43.4397L31.7387 42.9327V41.481H31.7363Z" fill="white"/>
<path d="M15.6631 18.0967C17.6055 17.0327 22.3532 14.6907 19.1348 12.1655C18.6961 11.8227 18.213 11.5133 17.8071 11.1302C17.3052 11.5229 17.9948 12.4987 18.1684 12.8558C18.1684 12.8558 17.0963 12.9652 16.8407 12.9652C15.1845 12.9581 13.4486 11.9632 14.3283 10.0568C13.6691 10.1947 13.5894 10.8374 13.3878 11.3872C12.9655 11.0968 12.2312 10.4732 11.6659 10.5613C12.1256 12.0536 14.0609 13.3983 15.5622 13.703C14.0445 14.5408 11.2296 15.1643 9.74942 13.3603C8.71026 15.4 10.1575 16.252 11.5768 17.3207C6.17445 19.8222 6.97208 22.6282 3.42765 24.837C3.88735 25.056 5.93752 24.6157 6.12056 24.5895C5.35108 25.601 4.99218 26.0295 4.76702 26.522C4.55115 26.9838 4.45503 27.5051 4.24156 28.6285C4.07498 29.5162 3.76999 30.4016 2.70508 30.9895C3.12265 31.7558 4.04923 31.1561 4.43627 31.0538C4.38467 31.1347 4.25324 32.0581 3.90612 32.5032C5.72643 32.3842 4.88429 28.4904 6.70461 29.4282C7.2183 29.69 7.37319 30.3041 7.13617 30.8062C5.93982 33.31 8.65866 35.5164 8.51077 37.7109C9.17944 37.7062 9.87147 37.6869 10.3077 36.7706C10.5353 37.2277 10.8871 37.8703 11.0841 38.4892L11.6284 37.549C11.9638 39.1055 13.3947 40.5432 15.3276 40.6716C14.4058 39.1912 15.5107 37.1705 13.2705 35.0213C13.5495 34.7928 14.1947 34.3525 14.4245 34.0526C11.6753 34.3811 8.80638 32.1748 10.1083 31.1276C10.9598 30.4444 11.3328 31.863 12.6464 31.625L12.1327 31.1751C12.3133 30.9943 12.5198 30.7587 12.7332 30.5802C12.1749 30.511 11.565 30.1492 11.565 30.1492L11.8981 29.59C8.67743 29.5852 8.59529 27.0862 9.90422 26.9861C10.5188 26.941 11.314 28.0906 13.2962 27.8502C13.0428 27.5408 12.942 27.072 12.8223 26.7269C13.3009 26.6816 13.8639 26.6864 14.3166 26.4626C13.3478 26.3365 13.1038 26.0056 12.2969 25.3867L13.2329 25.0394C11.8746 24.3515 11.9568 23.1543 11.9146 21.9072C12.6254 22.3213 13.4604 22.9638 14.3518 22.6663C14.5629 22.5949 14.699 22.495 14.7037 22.2712C13.4323 21.7548 12.616 19.7674 15.6631 18.0967ZM13.3432 18.2918C11.6425 20.1363 12.379 21.2407 12.7215 21.5811C12.0881 21.443 11.1429 20.6242 11.3586 19.8317C11.1569 20.0768 10.9505 20.3435 10.7394 20.6171C10.3171 21.1884 9.93945 21.7477 9.60401 22.2902C9.08792 23.8468 10.0333 25.4535 11.6425 26.1651C9.85501 25.8985 9.05279 24.2848 9.05748 23.2566C8.20356 24.8941 7.79537 26.3888 7.83289 27.6431C7.84936 28.1096 7.88918 28.5452 7.95016 28.9569C8.36075 29.7471 9.01995 30.0374 10.195 30.1827C9.12784 30.2518 8.56236 30.2018 8.09797 29.7066C8.82514 32.8793 12.2265 35.6258 13.6105 37.9774C12.2242 36.1496 9.3553 33.4267 8.35137 31.4584C8.27392 32.1701 8.46156 33.9931 9.33414 35.1142C8.04867 33.8313 7.94786 31.8892 8.0323 30.7515C7.70633 29.9328 7.49984 29.0188 7.4717 27.9787C7.44585 27.022 7.51153 26.1912 7.65464 25.4463C6.84294 26.6173 5.67014 27.0695 5.09299 28.8522C5.20566 26.553 6.89703 26.5173 8.16373 23.7255C8.65397 22.5046 9.36698 21.4501 10.1552 20.2553C9.15359 20.5886 8.40297 20.8266 7.24406 22.1142C8.06744 20.1387 12.8247 17.9181 15.004 15.7689C14.3495 15.9093 11.6776 15.9784 10.5681 15.2263C12.5785 15.7784 17.0518 15.1477 18.7407 13.9767C17.5749 15.6785 15.0368 15.7761 11.9474 19.1605C12.3414 18.8416 12.867 18.5203 13.3432 18.2918Z" fill="white"/>
<path d="M45.7544 28.6282C45.541 27.505 45.4471 26.9837 45.2313 26.5219C45.0084 26.0292 44.6472 25.6009 43.8755 24.5893C44.0584 24.6154 46.1134 25.0558 46.5708 24.8369C43.0263 22.6281 43.8239 19.8221 38.4192 17.3206C39.8384 16.2519 41.2858 15.3999 40.2465 13.3577C38.7664 15.1642 35.9515 14.5407 34.4337 13.7005C35.9374 13.3959 37.8703 12.0534 38.3301 10.5588C37.7623 10.4708 37.0281 11.0943 36.606 11.3823C36.4042 10.8324 36.3267 10.1898 35.6676 10.0494C36.5473 11.9582 34.8091 12.9531 33.1507 12.9603C32.8973 12.9603 31.8277 12.8507 31.8277 12.8507C31.9988 12.4938 32.6886 11.518 32.1841 11.1252C31.7784 11.5108 31.2998 11.8178 30.8588 12.1606C27.6381 14.6858 32.3906 17.0302 34.3329 18.0917C37.3754 19.7626 36.566 21.7499 35.2923 22.2592C35.297 22.483 35.4331 22.5829 35.6465 22.6543C36.5332 22.9542 37.373 22.3116 38.0791 21.895C38.0391 23.1422 38.1236 24.3418 36.7655 25.0272L37.699 25.3748C36.8921 25.9936 36.6505 26.3244 35.6817 26.4506C36.1321 26.6742 36.6998 26.6695 37.1759 26.7148C37.054 27.0598 36.9485 27.5288 36.6998 27.8381C38.6843 28.0761 39.4819 26.9289 40.0917 26.9742C41.3959 27.0742 41.3186 29.5732 38.0954 29.5779L38.4286 30.1373C38.4286 30.1373 37.8187 30.4991 37.258 30.568C37.4716 30.7442 37.6803 30.9821 37.8609 31.1631L37.3472 31.6129C38.6585 31.8509 39.0338 30.4324 39.8852 31.1155C41.1872 32.1627 38.3207 34.3691 35.5691 34.0406C35.8013 34.3405 36.4464 34.7832 36.7255 35.0117C34.483 37.1585 35.5855 39.1816 34.6683 40.6643C36.5966 40.5334 38.0275 39.0959 38.3676 37.5393L38.9118 38.4794C39.1065 37.8607 39.463 37.2179 39.6859 36.761C40.1199 37.6773 40.8166 37.6963 41.4875 37.7011C41.335 35.5067 44.0514 33.3004 42.8597 30.7965C42.6205 30.2968 42.7752 29.6827 43.289 29.4184C45.114 28.4807 44.2672 32.3746 46.0899 32.4935C45.7403 32.0485 45.6113 31.125 45.562 31.0441C45.9468 31.1465 46.8711 31.7462 47.2885 30.9774C46.2306 30.4015 45.9257 29.5161 45.7544 28.6282ZM42.346 25.4437C42.4892 26.1911 42.5618 27.0193 42.529 27.9762C42.4986 29.0162 42.2944 29.9302 41.9683 30.7489C42.0504 31.8867 41.9519 33.8288 40.6664 35.1116C41.5367 33.9882 41.7268 32.1674 41.6493 31.4558C40.6406 33.4242 37.7742 36.1469 36.3854 37.9748C37.7717 35.6233 41.1731 32.8743 41.9026 29.7041C41.4335 30.1968 40.8729 30.2492 39.8032 30.1801C40.9761 30.035 41.6353 29.7445 42.0457 28.9543C42.1067 28.545 42.1467 28.107 42.163 27.6406C42.2029 26.3863 41.7925 24.8916 40.9385 23.2542C40.9456 24.2823 40.1433 25.8961 38.3535 26.1625C39.9581 25.4484 40.9057 23.8419 40.392 22.2878C40.0589 21.7451 39.6836 21.1834 39.2566 20.6146C39.0455 20.3408 38.8391 20.0744 38.6351 19.8291C38.8508 20.6217 37.9055 21.4405 37.2721 21.5785C37.617 21.2382 38.3512 20.1339 36.6529 18.2892C37.129 18.5178 37.6545 18.8391 38.0509 19.1532C34.9615 15.7688 32.4258 15.6736 31.2552 13.9694C32.9465 15.1404 37.42 15.7735 39.4278 15.219C38.3207 15.971 35.6465 15.9021 34.992 15.7616C37.1713 17.9108 41.9332 20.1314 42.7542 22.1069C41.5953 20.8193 40.8424 20.5813 39.8454 20.248C40.6359 21.4453 41.3443 22.4973 41.8347 23.7182C43.1037 26.5101 44.7973 26.5434 44.9075 28.8449C44.3306 27.0669 43.16 26.6147 42.346 25.4437Z" fill="white"/>
<path d="M27.49 21.4285C26.9809 22.1377 26.0545 22.6138 25.0011 22.6138C24.7548 22.6138 24.5179 22.5852 24.2927 22.5423C24.3561 22.8351 24.5038 23.1374 24.8111 23.3968C24.6869 24.2466 25.0481 25.0415 25.9466 25.2485C26.0427 25.6817 26.3054 26.0078 26.7512 26.1624L26.1247 26.8955C25.8831 27.1764 25.5688 27.2668 25.3155 27.2335L22.5194 26.9121C22.6413 26.5981 22.3176 26.2339 21.4309 26.3886L22.5288 23.2707L21.8601 21.8259L20.5911 22.9256L20.4973 26.1957L19.9508 25.9268C19.247 25.6175 19.0382 26.9193 19.7091 26.9241L19.9789 26.9264C19.9601 27.0598 20.0024 27.2074 20.1079 27.2549C19.9812 27.3072 19.9437 27.5477 20.1009 27.6333C19.9414 27.7119 19.9179 27.9594 20.0469 28.0665C19.9085 28.3069 19.8826 28.8281 20.373 28.959C20.7764 29.0661 21.0298 28.6282 21.1119 28.3735L25.4632 29.7397C26.0755 29.9183 26.5166 29.8183 27.0279 29.3636L28.1633 28.3569C28.0201 29.0162 28.2523 29.6088 28.7474 29.8064C28.7474 29.8064 28.6699 30.4109 28.7005 30.6608L30.2229 30.6632H32.6202V23.4039C32.6202 22.728 32.8103 22.0521 33.0448 21.4285H30.2229H27.49Z" fill="white"/>
<path d="M20.9736 33.6434L21.0581 33.7505C21.1753 33.898 21.2457 33.8623 21.3794 33.7838L21.5764 33.6767C21.7008 33.5814 22.5101 33.8956 22.5546 33.2126C22.6438 33.722 22.0456 34.7953 22.4069 35.3951L22.8924 36.2019L21.3067 36.2257C21.1331 36.2257 21.0417 36.3328 20.9948 36.428L20.5795 37.3015C20.4715 37.5324 20.4786 37.7704 20.6147 37.9298L20.8962 38.2512C20.8962 38.2512 21.1261 38.0537 21.2011 37.7942L21.0768 37.6633C20.9736 37.5634 20.9736 37.4681 21.0299 37.3444L21.2855 36.8065C21.3841 36.5946 21.485 36.5495 21.7102 36.6041L22.9933 36.8851C23.0872 36.9088 23.2397 36.9541 23.3311 36.7946C23.4883 36.5113 23.765 36.4923 24.0466 36.5375C24.7502 36.6446 26.3759 36.816 26.9554 36.1282C27.6355 37.0445 28.9656 37.0445 28.8789 37.5252L28.5973 39.1008H29.0195L29.2776 37.4895C29.3057 37.3015 29.4207 37.0445 29.2213 36.8993C29.1393 36.8351 29.1017 36.8018 28.9163 36.478C28.6748 36.0496 28.6865 35.407 28.4542 34.8525C28.6748 34.5883 28.914 34.4978 29.1228 34.5478C29.592 34.6644 29.7186 35.4855 30.3848 36.1544C30.3098 35.8568 30.2769 35.5308 30.1197 35.2476C30.1197 35.2476 30.5818 35.6117 30.7015 36.0378C30.7766 36.3043 30.854 36.4995 31.0908 36.6232C31.2481 36.6803 31.4357 36.6041 31.6235 36.3757C31.6235 36.3757 31.1847 35.7426 30.8634 35.3285C30.4223 34.7596 29.8335 34.1884 29.0314 34.255C28.778 34.2765 28.534 34.3931 28.3018 34.5335C27.3893 34.0146 26.6809 34.5645 26.3994 34.5645L24.6916 34.4622C24.3563 34.4407 24.0911 34.0456 24.0911 34.0456C24.0489 32.5795 22.8878 31.9963 22.4866 31.9963C22.4866 31.9963 22.5242 31.7322 22.4186 31.6394L22.062 32.0939L21.0721 31.7275L21.8486 32.3723L21.0065 33.3649C20.9197 33.4625 20.9314 33.5909 20.9736 33.6434Z" fill="white"/>
<path d="M19.8548 35.7023C19.6157 35.8903 19.6273 36.1521 19.7705 36.4449L19.9135 36.7161L20.2864 36.4282L20.202 36.2425C20.141 36.1117 20.1434 35.9785 20.2489 35.8951L20.7838 35.4857C20.934 35.3739 20.9809 35.362 21.1404 35.3857L22.2686 35.6262C22.2686 35.6262 22.0975 35.3739 22.0411 35.1167L20.9785 34.974C20.8284 34.955 20.7369 35.0192 20.6055 35.1215L19.8548 35.7023Z" fill="white"/>
<path d="M27.0703 39.1009H27.4973L28.1822 37.3896C28.2057 37.33 28.2385 37.3039 28.2644 37.2539C27.957 37.1301 27.7764 37.0445 27.5207 36.8945C27.6919 37.1278 27.8256 37.2277 27.7553 37.4444L27.0703 39.1009Z" fill="white"/>
<path d="M27.4345 15.9545L28.2249 11.3442L25.2295 12.3772V17.1302L27.4345 15.9545ZM25.7361 12.8438L27.7229 12.1012C27.7229 12.1012 27.3359 12.4201 26.8738 12.7414C26.4633 13.0294 25.7361 13.3364 25.7361 13.3364V12.8438ZM25.7361 13.9599L27.554 13.3007C27.554 13.3007 27.3359 13.5339 26.8761 13.8552C26.4656 14.1409 25.7385 14.4479 25.7385 14.4479V13.9599H25.7361ZM25.7361 15.1452L27.3359 14.5217C27.3359 14.5217 27.3359 14.7192 26.8738 15.0382C26.4633 15.3262 25.7361 15.6332 25.7361 15.6332V15.1452Z" fill="white"/>
<path d="M22.104 20.0316L22.1697 20.1387H22.7867L22.7937 20.2482C22.8007 20.3529 22.8242 20.46 22.8593 20.5695C22.9555 20.867 23.1456 21.1788 23.4505 21.4311C23.8047 21.7214 24.3161 21.9309 24.9963 21.9309C26.4718 21.9309 27.138 20.9623 27.2014 20.2482L27.2061 20.1387H27.8253L27.891 20.0316C28.4728 19.1081 29.1836 18.0823 30.0093 17.9348L27.7573 16.6091L24.9963 18.1322L22.233 16.6091L19.9834 17.9348C20.8092 18.0799 21.52 19.1081 22.104 20.0316Z" fill="white"/>
<path d="M24.7643 17.1302V12.3772L21.7734 11.3442L22.5592 15.9545L24.7643 17.1302ZM24.2599 15.638C24.2599 15.638 23.5327 15.3285 23.1222 15.0429C22.6601 14.7239 22.6601 14.5241 22.6601 14.5241L24.2622 15.1476V15.638H24.2599ZM24.2599 12.8438V13.3364C24.2599 13.3364 23.5327 13.0294 23.1222 12.7414C22.6577 12.4201 22.2684 12.1012 22.2684 12.1012L24.2599 12.8438ZM24.2599 13.9599V14.4503C24.2599 14.4503 23.5327 14.1432 23.1222 13.8576C22.6577 13.5363 22.442 13.3031 22.442 13.3031L24.2599 13.9599Z" fill="white"/>
<path d="M24.999 9.31177C23.2889 9.31177 22.0058 9.88067 21.7266 10.5471L24.999 11.8585L28.2667 10.5471C27.9898 9.88067 26.7091 9.31177 24.999 9.31177Z" fill="white"/>
<path d="M24.9992 7.40758C26.259 7.40758 27.5209 7.79548 28.37 8.29768C28.5085 7.83355 28.6562 7.50274 28.858 7.12434L28.084 7.24572L27.4575 5.88904L26.2871 6.5198L24.9992 5.22742L23.7091 6.5198L22.5409 5.88904L21.9098 7.24572L21.1357 7.12434C21.3374 7.50274 21.4829 7.83355 21.6261 8.29768C22.4776 7.79548 23.7349 7.40758 24.9992 7.40758Z" fill="white"/>
<path d="M46.3456 17.8561C46.7677 17.8014 47.108 17.6585 47.5232 17.3444C46.6294 17.104 44.7574 16.4161 43.16 16.7256C42.6322 16.7969 42.339 17.0136 42.5266 17.1373C43.3852 17.7156 44.4455 19.0557 45.2172 20.6194C45.8952 19.7649 45.6113 18.6439 45.4682 18.3226C46.8193 19.1485 47.1736 19.5507 47.8 19.3936C47.4645 18.8723 46.993 18.4034 46.3456 17.8561Z" fill="white"/>
<path d="M4.77998 20.617C5.55176 19.0533 6.61198 17.7134 7.47289 17.135C7.66531 17.0113 7.3673 16.7946 6.84423 16.7232C5.24438 16.4162 3.36786 17.1016 2.47409 17.3421C2.89399 17.6562 3.22704 17.799 3.654 17.8538C3.00427 18.4035 2.53269 18.8701 2.19727 19.3914C2.82832 19.5484 3.18013 19.1461 4.52889 18.3203C4.39055 18.644 4.10432 19.7627 4.77998 20.617Z" fill="white"/>
<path fill-rule="evenodd" clip-rule="evenodd" d="M14.1473 35.1308C14.7689 34.6308 15.2849 34.3811 15.2591 33.1696C14.3255 33.655 11.6772 33.6289 10.57 32.0818C10.258 31.6415 10.5911 31.4202 10.8936 31.7677C11.6513 32.6388 13.0541 32.2437 13.5655 31.9938C13.4834 31.6939 13.2559 31.3036 13.0659 31.137C13.2583 30.9465 13.8001 30.661 13.9103 30.1706C13.6219 30.0112 12.4982 29.8969 12.4982 29.8969C12.6788 29.7208 12.904 29.4757 12.768 28.8212C11.6209 29.1782 10.2017 28.6926 9.88033 28.2618C9.56365 27.8382 9.88741 27.4407 10.1547 27.7216C10.7272 28.3309 13.5467 29.0282 14.5954 27.9691C14.2059 27.8596 13.7767 27.5073 13.6992 27.2884C14.6704 27.1885 15.4445 26.6077 15.5079 25.8841C14.9706 25.8841 13.9572 25.8437 13.6101 25.5818C14.0746 25.4081 14.3701 25.2368 14.5179 24.7084C12.7422 24.5989 12.6014 23.2613 12.592 23.04C13.7485 23.7159 15.7846 23.416 15.2568 21.7499C14.295 21.6976 13.3263 20.1196 15.9699 18.6701C18.3744 17.3492 21.1071 15.9259 20.8655 13.5815C20.7083 12.082 18.2758 11.0586 17.9662 10.2994C16.9504 10.7896 16.7464 11.3586 17.2038 12.313C17.2038 12.313 14.9402 12.5414 14.7618 11.1277C14.6845 10.4946 15.102 9.90197 15.5501 9.44736C15.2967 9.44736 13.5912 8.98322 13.0775 10.3922C12.1228 9.73059 11.3042 9.75439 10.6615 10.4541C11.6889 11.0729 12.3246 13.196 14.023 13.822C12.8149 14.4859 10.8608 14.2075 9.72075 12.1653C8.64176 13.8148 8.02009 15.4475 10.3354 17.1921C6.12472 19.1366 6.15525 22.8544 2.49113 24.6251C2.86174 25.6366 3.6452 25.6366 4.64462 25.4795C3.06114 27.5668 4.40999 29.7517 1.90234 30.6443C2.13693 31.4963 2.60842 32.1771 3.53271 31.9272C3.26993 32.3437 3.09637 32.3341 2.68818 32.7912C4.05808 33.667 5.68378 33.0339 6.05206 30.2229C6.11773 29.7208 6.79799 30.035 6.56336 30.5277C5.00103 33.805 8.95145 36.2708 7.55331 38.6747C8.78479 38.6223 9.72544 38.5247 10.2369 38.1034C10.4878 38.608 10.6404 39.1079 10.5841 39.6005C11.2643 39.4601 11.513 39.0531 11.5599 38.5818C12.0056 39.9028 13.6007 41.3142 16.153 41.3142C14.7994 39.353 16.0591 37.3656 14.1473 35.1308ZM11.6279 37.5465L11.0838 38.4866C10.8889 37.8678 10.5347 37.2252 10.3073 36.7682C9.86865 37.6845 9.17661 37.7036 8.51042 37.7083C8.65814 35.5139 5.93948 33.3076 7.13573 30.8038C7.37506 30.3039 7.21787 29.6899 6.70408 29.4257C4.88146 28.4879 5.72591 32.3818 3.90568 32.5007C4.25289 32.0557 4.38414 31.1322 4.43574 31.0513C4.0487 31.1537 3.12213 31.7534 2.70464 30.987C3.76964 30.3991 4.07455 29.5137 4.24112 28.626C4.45221 27.5025 4.55071 26.9813 4.76419 26.5196C4.98935 26.027 5.34825 25.5985 6.11773 24.587C5.93479 24.6132 3.88692 25.0535 3.42482 24.8346C6.96925 22.6258 6.17163 19.8197 11.574 17.3182C10.1571 16.2496 8.70973 15.3975 9.74669 13.3578C11.2268 15.1619 14.0394 14.5383 15.5595 13.7005C14.0582 13.3959 12.1228 12.0535 11.6654 10.5588C12.2307 10.4708 12.965 11.0943 13.3849 11.3847C13.5889 10.8326 13.6688 10.1923 14.3279 10.0542C13.4482 11.9607 15.1841 12.9555 16.8402 12.9627C17.0982 12.9627 18.1679 12.8532 18.1679 12.8532C17.9967 12.4961 17.3046 11.5204 17.8066 11.1277C18.2124 11.5132 18.6957 11.8203 19.1343 12.163C22.3551 14.6906 17.6049 17.0327 15.6626 18.0965C12.6155 19.7674 13.4318 21.7571 14.7032 22.264C14.6985 22.4878 14.5625 22.5878 14.3513 22.6591C13.46 22.959 12.6248 22.314 11.9141 21.8999C11.9563 23.147 11.8718 24.3466 13.2324 25.032L12.2964 25.3771C13.101 25.9984 13.3474 26.3268 14.3161 26.4554C13.8634 26.679 13.3028 26.6743 12.8219 26.7195C12.9439 27.0646 13.0424 27.5335 13.2958 27.843C11.3136 28.081 10.5184 26.9337 9.90378 26.979C8.59485 27.0789 8.6769 29.5781 11.8978 29.5828L11.5646 30.1421C11.5646 30.1421 12.1744 30.5039 12.7352 30.5729C12.5216 30.7491 12.3152 30.987 12.1346 31.168L12.6483 31.6177C11.3324 31.8558 10.9617 30.4373 10.1078 31.1202C8.80594 32.1676 11.6748 34.3739 14.424 34.0454C14.1942 34.3453 13.5467 34.788 13.27 35.0164C15.5102 37.1633 14.4052 39.1864 15.3272 40.6692C13.3943 40.5406 11.9634 39.1008 11.6279 37.5465Z" fill="black"/>
<path fill-rule="evenodd" clip-rule="evenodd" d="M8.09244 29.7067C8.55922 30.1994 9.12231 30.2517 10.1895 30.1826C9.01432 30.0375 8.35522 29.7471 7.94472 28.957C7.88604 28.5476 7.84621 28.1097 7.82975 27.6431C7.79222 26.3889 8.20042 24.8942 9.05424 23.2567C9.04955 24.2826 9.84938 25.8963 11.6393 26.1651C10.0301 25.4511 9.08478 23.8445 9.60077 22.2903C9.9363 21.7478 10.3139 21.1861 10.7361 20.6171C10.9472 20.3436 11.1536 20.0769 11.3554 19.8317C11.1395 20.6243 12.085 21.443 12.7183 21.5812C12.3758 21.2407 11.6393 20.1388 13.34 18.2942C12.8661 18.5227 12.3406 18.844 11.9419 19.1583C15.029 15.7737 17.5693 15.6785 18.7352 13.9744C17.0462 15.1454 12.5729 15.7785 10.5626 15.224C11.6721 15.9761 14.3439 15.907 14.9984 15.7666C12.8215 17.9157 8.06429 20.1364 7.23861 22.1119C8.39743 20.8219 9.14806 20.5863 10.152 20.2554C9.36154 21.4526 8.65083 22.5046 8.16041 23.7256C6.8937 26.515 5.20012 26.5507 5.08984 28.8499C5.667 27.0672 6.8398 26.6149 7.65141 25.4439C7.50838 26.1913 7.44032 27.0195 7.46617 27.9764C7.49431 29.0166 7.70071 29.9304 8.02677 30.7492C7.94472 31.8869 8.04314 33.829 9.3287 35.1118C8.45602 33.9908 8.26839 32.1676 8.34583 31.4561C9.35216 33.4244 12.221 36.1472 13.6074 37.975C12.221 35.6259 8.822 32.8793 8.09244 29.7067Z" fill="black"/>
<path fill-rule="evenodd" clip-rule="evenodd" d="M39.8481 20.2553C40.8451 20.5886 41.5981 20.8242 42.7568 22.1141C41.9358 20.1386 37.1716 17.9181 34.9947 15.7689C35.6492 15.9069 38.3233 15.9784 39.4306 15.2262C37.4226 15.7807 32.9492 15.1477 31.2578 13.9767C32.4261 15.6808 34.9642 15.776 38.0535 19.1605C37.6571 18.8464 37.1317 18.525 36.6555 18.2965C38.3539 20.1412 37.6196 21.2454 37.2749 21.5858C37.9081 21.4478 38.8535 20.6291 38.6377 19.8364C38.8418 20.0816 39.0482 20.3481 39.2593 20.6219C39.6838 21.1931 40.0592 21.7524 40.3946 22.2951C40.9107 23.8517 39.9631 25.4582 38.3585 26.1698C40.1483 25.9032 40.9506 24.2872 40.9413 23.2613C41.7974 24.8989 42.2056 26.3935 42.1681 27.6478C42.1517 28.1144 42.1118 28.5499 42.0508 28.9617C41.638 29.7519 40.9788 30.0422 39.8058 30.1874C40.8756 30.2541 41.4362 30.2041 41.9053 29.7114C41.1758 32.884 37.7768 35.6307 36.388 37.9822C37.7768 36.1542 40.641 33.4314 41.6521 31.4631C41.7294 32.1748 41.5417 33.998 40.6691 35.1189C41.9546 33.836 42.0532 31.8939 41.9709 30.7562C42.2947 29.9375 42.4988 29.0235 42.5316 27.9834C42.5622 27.0267 42.4894 26.196 42.3487 25.4511C43.1626 26.6221 44.3332 27.0743 44.9126 28.857C44.8024 26.5554 43.1087 26.5198 41.8396 23.7303C41.3471 22.5022 40.6386 21.4501 39.8481 20.2553Z" fill="black"/>
<path fill-rule="evenodd" clip-rule="evenodd" d="M45.3557 25.4747C46.3526 25.6341 47.1362 25.6341 47.5091 24.6227C43.845 22.8519 43.8756 19.1366 39.6649 17.1897C41.9801 15.4474 41.3562 13.8123 40.2795 12.1629C39.1418 14.2051 37.1808 14.4835 35.9773 13.8195C37.671 13.1935 38.3114 11.0704 39.3388 10.4516C38.6961 9.75194 37.8751 9.72816 36.9203 10.3898C36.4043 8.98079 34.7012 9.44491 34.4455 9.44491C34.8913 9.89711 35.3135 10.4898 35.2338 11.1252C35.0578 12.539 32.7942 12.3105 32.7942 12.3105C33.2516 11.3561 33.0474 10.7873 32.0318 10.297C31.7221 11.0562 29.292 12.0797 29.1324 13.5791C28.8885 15.9235 31.6259 17.3467 34.0281 18.6677C36.6717 20.1172 35.703 21.6975 34.7435 21.7475C34.211 23.4136 36.2471 23.7134 37.4059 23.0376C37.4012 23.2589 37.2534 24.5965 35.4777 24.706C35.6278 25.2343 35.921 25.4057 36.3855 25.5795C36.0383 25.8436 35.025 25.8818 34.4901 25.8818C34.5534 26.6053 35.3299 27.1884 36.3011 27.286C36.2236 27.505 35.7921 27.8572 35.405 27.9667C36.4535 29.0258 39.2731 28.3285 39.8455 27.7192C40.1082 27.4383 40.4297 27.8358 40.1153 28.2594C39.7915 28.6926 38.3747 29.1781 37.2253 28.8187C37.0939 29.4708 37.3144 29.7185 37.495 29.8945C37.495 29.8945 36.3714 30.0087 36.0805 30.1682C36.1908 30.6586 36.735 30.9418 36.925 31.1345C36.7326 31.3012 36.5051 31.6915 36.423 31.9913C36.939 32.2437 38.3419 32.6364 39.0948 31.7653C39.3998 31.4202 39.7329 31.6391 39.4209 32.0794C38.3137 33.6264 35.6653 33.6503 34.7294 33.1671C34.7035 34.3786 35.2196 34.6284 35.8413 35.1283C33.9271 37.3632 35.1915 39.3506 33.8379 41.307C36.3878 41.307 37.983 39.8955 38.4287 38.5746C38.4803 39.0435 38.7242 39.4529 39.4021 39.5934C39.3506 39.1006 39.5006 38.6009 39.7493 38.0963C40.2654 38.5176 41.206 38.6151 42.4375 38.6674C41.0419 36.2636 44.9921 33.7979 43.4252 30.5205C43.1929 30.0278 43.8732 29.7137 43.9389 30.2159C44.3048 33.0267 45.9327 33.6598 47.305 32.7839C46.8922 32.327 46.7209 32.3365 46.4582 31.9199C47.3825 32.1699 47.8517 31.4891 48.0885 30.6371C45.5927 29.747 46.9415 27.562 45.3557 25.4747ZM45.5669 31.0536C45.6162 31.1345 45.7451 32.0581 46.0946 32.5031C44.272 32.3841 45.1164 28.4902 43.2937 29.428C42.78 29.6897 42.6276 30.3039 42.8645 30.806C44.0561 33.31 41.3398 35.5162 41.4923 37.7107C40.8214 37.7059 40.1247 37.6869 39.6907 36.7705C39.4678 37.2275 39.109 37.8702 38.9142 38.489L38.37 37.5488C38.0322 39.1054 36.6013 40.5429 34.6731 40.6738C35.5903 39.1935 34.4878 37.1704 36.7303 35.0212C36.4488 34.7927 35.8038 34.35 35.5715 34.0502C38.3231 34.3786 41.1896 32.1722 39.8877 31.125C39.0362 30.4419 38.6608 31.8604 37.3495 31.6224L37.8634 31.1726C37.6827 30.9917 37.474 30.7561 37.2604 30.5776C37.8212 30.5086 38.431 30.1469 38.431 30.1469L38.0979 29.5874C41.3187 29.5827 41.3961 27.0837 40.0941 26.9837C39.4818 26.9385 38.6844 28.088 36.7022 27.8476C36.9532 27.5383 37.0564 27.0694 37.1784 26.7243C36.6998 26.679 36.1345 26.6838 35.6842 26.46C36.6529 26.3339 36.8968 26.0031 37.7014 25.3844L36.7679 25.0368C38.126 24.349 38.0393 23.1517 38.0815 21.9046C37.373 22.3187 36.5333 22.9614 35.6489 22.6639C35.4378 22.5925 35.2995 22.4925 35.2948 22.2688C36.5685 21.7594 37.3801 19.772 34.3353 18.1012C32.3954 17.0373 27.6428 14.6954 30.8612 12.1701C31.3022 11.8273 31.7807 11.518 32.1842 11.1347C32.6886 11.5275 31.9989 12.5033 31.8277 12.8603C31.8277 12.8603 32.8974 12.9698 33.1507 12.9698C34.8092 12.9626 36.5474 11.9678 35.6676 10.059C36.3268 10.197 36.4043 10.842 36.606 11.3919C37.0283 11.1014 37.7601 10.4803 38.3302 10.5683C37.8681 12.0606 35.9374 13.4054 34.4339 13.71C35.9515 14.5478 38.7664 15.1714 40.2466 13.3672C41.2835 15.407 39.8384 16.259 38.4193 17.3277C43.824 19.8268 43.0241 22.6353 46.5708 24.8439C46.1134 25.0629 44.0585 24.6227 43.8756 24.5965C44.6496 25.608 45.0109 26.0364 45.2314 26.5292C45.4472 26.9909 45.5411 27.5097 45.7545 28.6355C45.9234 29.5233 46.2307 30.4086 47.291 30.9965C46.8758 31.7558 45.9516 31.156 45.5669 31.0536Z" fill="black"/>
<path fill-rule="evenodd" clip-rule="evenodd" d="M19.8309 37.1966L20.6026 36.5327L20.4854 36.2946C20.4008 36.1233 20.4454 36.1138 20.5347 36.0471L20.9429 35.7401C21.0366 35.6615 21.1351 35.671 21.2501 35.6996L22.4722 35.99H21.182C20.8841 36.009 20.7973 36.1257 20.6895 36.3494L20.6003 36.5327L20.2696 37.2229C20.157 37.4609 20.0983 37.7774 20.3938 38.1345L20.6285 38.4177L20.1546 39.3911H20.5534L20.8818 38.7152C20.9076 38.6913 21.3932 38.2416 21.4964 37.7774C21.3556 37.6609 21.257 37.5798 21.3346 37.4181L21.4823 37.0943C21.5316 36.9873 21.548 36.9444 21.6887 36.9706L22.9695 37.2514C23.1291 37.2967 23.3636 37.3681 23.5349 37.1063C23.7108 36.8349 23.7343 36.8635 24.1424 36.904L24.7969 36.9753C25.6906 37.061 26.5844 36.8348 26.9316 36.5541C27.0535 36.8348 27.2951 37.0515 27.4077 37.2705C27.45 37.3514 27.3796 37.4656 27.3257 37.6084L26.5914 39.3887H27.7243L28.3648 37.7655C28.4234 37.6108 28.5102 37.487 28.5759 37.4252L28.2077 39.3911H29.3078L29.5986 37.4466C29.662 37.0135 29.6245 36.8754 29.4204 36.6969C28.9629 36.3041 28.9723 35.4806 28.8246 34.9808C28.9019 34.9357 28.9934 34.9119 29.1014 34.9262C29.3406 34.9475 29.5213 35.5687 29.8027 35.9685C30.3657 36.7706 31.1327 37.6561 32.0124 36.4089C31.928 36.2661 31.8365 36.1376 31.7286 36.0138L31.4823 35.7211C31.3392 35.5592 30.6589 34.769 30.3751 34.4857C29.73 33.8265 28.7401 33.9265 28.346 34.2478C27.4523 33.7718 26.5093 34.2716 26.2864 34.2525L24.7476 34.1573C24.6772 34.1526 24.5717 34.1288 24.4967 34.0073L24.7828 33.9122C24.5154 32.7817 23.8422 31.8367 22.667 31.6725C22.667 31.6725 22.5988 31.3154 22.4183 31.2464L22.0664 31.6654C21.9678 31.6797 21.86 31.7105 21.7708 31.7487L20.2696 31.1823L21.3956 32.3366C21.3956 32.3366 20.8114 33.1768 20.6448 33.3481C20.5347 33.5052 20.544 33.6265 20.6683 33.7766L20.8865 34.0668C20.9991 34.2168 21.1234 34.2121 21.304 34.1193L21.5504 33.9883C21.6583 33.8979 22.0194 34.0764 22.1742 33.9336C22.0757 34.2621 22.0265 34.5786 22.0031 34.8285L20.9921 34.7047C20.7715 34.6738 20.6707 34.7047 20.537 34.8118L19.6738 35.4854C19.3922 35.7044 19.3055 36.0828 19.479 36.4517L19.8309 37.1966ZM28.1817 37.3894L27.4969 39.1031H27.0699L27.755 37.4442C27.8253 37.2299 27.6915 37.1301 27.5203 36.8969C27.7737 37.042 27.9567 37.1371 28.264 37.2562C28.2381 37.3038 28.2053 37.33 28.1817 37.3894ZM21.5761 33.6789L21.3815 33.7837C21.2454 33.8622 21.1773 33.8979 21.06 33.7504L20.9757 33.6408C20.9335 33.5885 20.9194 33.4624 21.0061 33.3624L21.8459 32.3699L21.0718 31.7248L22.057 32.0938L22.4183 31.6368C22.5238 31.7272 22.4862 31.9915 22.4862 31.9915C22.885 31.9915 24.0463 32.577 24.0908 34.0431C24.0908 34.0431 24.3535 34.4357 24.6889 34.4572L26.399 34.5619C26.6829 34.5619 27.3914 34.0145 28.3015 34.5311C28.5313 34.3906 28.7776 34.2788 29.031 34.2501C29.8332 34.1907 30.4244 34.7571 30.863 35.3283C31.1843 35.7425 31.6254 36.3755 31.6254 36.3755C31.4354 36.6041 31.2501 36.6802 31.0929 36.6231C30.8561 36.4994 30.7786 36.3066 30.7035 36.0376C30.5839 35.6115 30.1218 35.2474 30.1218 35.2474C30.2789 35.533 30.3117 35.8567 30.3869 36.1543C29.7183 35.483 29.5916 34.6642 29.1249 34.5501C28.9184 34.4978 28.6768 34.5881 28.4539 34.8499C28.6885 35.4045 28.6768 36.0471 28.9184 36.4779C29.1014 36.7992 29.1412 36.8278 29.2234 36.8992C29.4204 37.042 29.3101 37.3015 29.2797 37.4894L29.0263 39.1007H28.5993L28.8808 37.5251C28.9676 37.0443 27.6376 37.0443 26.9573 36.128C26.3779 36.8158 24.7524 36.6445 24.0486 36.5374C23.7647 36.4946 23.488 36.5136 23.3331 36.7968C23.2416 36.9563 23.0892 36.9087 22.9953 36.8849L21.7121 36.6041C21.487 36.5517 21.3885 36.5969 21.2899 36.8063L21.0343 37.3443C20.978 37.4704 20.9804 37.5632 21.0835 37.6656L21.2054 37.7965C21.1328 38.0535 20.9006 38.2511 20.9006 38.2511L20.6214 37.9321C20.4854 37.7703 20.4784 37.537 20.5863 37.3086L21.0014 36.4279C21.0507 36.3303 21.1398 36.2256 21.3133 36.2256L22.8991 36.2018L22.4136 35.3998C22.0523 34.7975 22.6529 33.7242 22.5613 33.2171C22.5121 33.8955 21.7028 33.5861 21.5761 33.6789ZM19.8543 35.7021L20.605 35.1213C20.7387 35.019 20.8278 34.9523 20.9804 34.9713L22.0406 35.1141C22.0992 35.3711 22.2682 35.6234 22.2682 35.6234L21.1398 35.3831C20.9804 35.3641 20.9335 35.3711 20.7833 35.4806L20.2484 35.89C20.1429 35.9733 20.1382 36.1067 20.1992 36.2375L20.286 36.4255L19.913 36.7112L19.7699 36.4398C19.6245 36.1518 19.6152 35.8877 19.8543 35.7021Z" fill="black"/>
<path fill-rule="evenodd" clip-rule="evenodd" d="M23.1246 15.0407C23.5351 15.3286 24.2623 15.6357 24.2623 15.6357V15.1454L22.6602 14.5242C22.6602 14.5242 22.6602 14.7241 23.1246 15.0407Z" fill="black"/>
<path fill-rule="evenodd" clip-rule="evenodd" d="M24.2593 14.4503V13.9601L22.4414 13.3008C22.4414 13.3008 22.6572 13.5341 23.1217 13.8554C23.5322 14.141 24.2593 14.4503 24.2593 14.4503Z" fill="black"/>
<path fill-rule="evenodd" clip-rule="evenodd" d="M24.2601 13.3364V12.8437L22.2686 12.1011C22.2686 12.1011 22.658 12.4201 23.1225 12.7414C23.533 13.0293 24.2601 13.3364 24.2601 13.3364Z" fill="black"/>
<path fill-rule="evenodd" clip-rule="evenodd" d="M29.8545 20.0316H31.8907C31.8062 19.7316 31.4895 19.4293 30.896 19.4293C30.3331 19.4293 29.9953 19.7578 29.8545 20.0316Z" fill="black"/>
<path fill-rule="evenodd" clip-rule="evenodd" d="M27.7241 12.1011L25.7373 12.8437V13.3364C25.7373 13.3364 26.4644 13.0293 26.875 12.7414C27.3371 12.4201 27.7241 12.1011 27.7241 12.1011Z" fill="black"/>
<path fill-rule="evenodd" clip-rule="evenodd" d="M27.3371 14.5242L25.7373 15.1478V15.638C25.7373 15.638 26.4644 15.3285 26.875 15.043C27.3371 14.7241 27.3371 14.5242 27.3371 14.5242Z" fill="black"/>
<path fill-rule="evenodd" clip-rule="evenodd" d="M27.5534 13.3008L25.7354 13.9601V14.4503C25.7354 14.4503 26.4648 14.1433 26.873 13.8578C27.3375 13.5341 27.5534 13.3008 27.5534 13.3008Z" fill="black"/>
<path fill-rule="evenodd" clip-rule="evenodd" d="M19.0971 19.4293C18.5037 19.4293 18.187 19.7316 18.1025 20.0316H20.141C19.9955 19.7578 19.6625 19.4293 19.0971 19.4293Z" fill="black"/>
<path fill-rule="evenodd" clip-rule="evenodd" d="M29.0434 10.7779C29.0434 9.61642 27.1198 8.57629 24.9969 8.57629C22.874 8.57629 20.9506 9.61642 20.9506 10.7779L20.9951 11.0635L21.8395 15.9974L17.8282 18.3703C17.4013 18.625 16.8665 19.3248 16.7985 20.0293H17.5304C17.6524 19.3248 18.1989 18.5441 19.2241 18.5917C20.1506 18.6417 20.6995 19.2128 21.2437 20.0293L21.3845 20.2434L21.5862 20.5647H15.6865C16.1206 21.4477 16.5311 22.3855 16.5311 23.4018V35.8473C16.5311 39.0485 18.9543 40.5741 21.5791 40.5741C23.6059 40.5741 23.8804 40.4812 24.9993 41.6165C26.1135 40.4812 26.388 40.5741 28.4194 40.5741C31.0419 40.5741 33.4675 39.0485 33.4675 35.8473V23.4042C33.4675 22.3878 33.878 21.4502 34.312 20.5672H28.4077L28.6118 20.2459L28.7525 20.0317C29.2944 19.2152 29.8457 18.644 30.7722 18.594C31.7926 18.5465 32.3439 19.3271 32.4635 20.0317H33.193C33.1274 19.3271 32.5902 18.625 32.1656 18.3727L28.1544 15.9998L29.0012 11.0659L29.0434 10.7779ZM21.7715 11.3443L24.7648 12.3773V17.1303L22.5596 15.9545L21.7715 11.3443ZM22.5081 21.4287C22.9021 21.9761 23.5403 22.3807 24.2956 22.5378C24.359 22.8258 24.5138 23.1423 24.814 23.397C24.6896 24.2467 25.0485 25.0392 25.9493 25.2487C26.0432 25.682 26.3082 26.008 26.7516 26.1627L26.1253 26.8958C25.886 27.1766 25.5741 27.267 25.316 27.2337L22.5198 26.9124C22.6418 26.5983 22.3181 26.234 21.4337 26.3889L22.5339 23.2709L21.863 21.8261L20.5916 22.9258L20.4978 26.196L19.9582 25.927C19.2475 25.6177 19.041 26.9196 19.7166 26.9243L19.984 26.9267C19.9676 27.06 20.0075 27.2076 20.1107 27.2527C19.984 27.3075 19.9464 27.5503 20.106 27.636C19.9441 27.7121 19.923 27.9597 20.0521 28.0667C19.9113 28.3071 19.8902 28.8284 20.3804 28.9592C20.7816 29.0663 21.0326 28.6284 21.1146 28.3738L25.4637 29.7399C26.0807 29.9185 26.517 29.8184 27.0284 29.3638L28.1638 28.3572C28.0207 29.0164 28.2552 29.6091 28.7502 29.8066C28.7502 29.8066 28.6799 30.3992 28.7009 30.6634H17.3779V23.4042C17.3779 22.7282 17.1856 22.0523 16.9556 21.4287H22.5081ZM27.1855 24.1825C26.9463 24.6466 26.9697 25.1798 27.2512 25.6629L27.0635 25.8485C26.2472 25.7461 25.9259 24.511 25.9259 24.511C25.9094 24.6228 25.9 24.7299 25.9024 24.8394C25.4262 24.6608 25.126 24.2324 25.1495 23.6446C25.3301 23.7469 25.5318 23.8183 25.7476 23.8564L25.8039 23.4946C25.2339 23.3947 24.9008 23.0329 24.7741 22.6045C24.746 22.6021 24.7225 22.595 24.6966 22.5926C24.7976 22.5997 24.8984 22.6093 25.0016 22.6093C25.3394 22.6093 25.6608 22.5569 25.961 22.4665C26.1979 22.8092 26.6179 23.0543 27.0401 23.1019C26.9721 23.3875 27.005 23.7421 27.1855 24.1825ZM28.3936 27.4479C28.3115 27.5598 28.2458 27.6883 28.2036 27.8287L27.7486 28.2523C27.84 27.5765 27.392 26.7792 26.9838 26.453L27.4671 25.9723L27.5632 26.0723C27.4014 26.503 27.7181 27.348 28.3936 27.4479ZM26.1957 27.2361L26.571 26.8624C26.951 27.2004 27.453 27.9549 27.2959 28.6736L26.8877 29.0545C26.8032 29.1378 26.7164 29.1974 26.6273 29.252C26.883 28.6118 26.5569 27.6265 26.1957 27.2361ZM25.3886 27.5527H25.4004C25.5364 27.5741 25.682 27.5503 25.8133 27.4955C26.0994 27.9097 26.3223 28.8522 25.9798 29.44C25.7852 29.4448 25.5951 29.4091 25.4168 29.3568L25.2762 29.3139C25.5647 28.8593 25.5247 28.0549 25.3886 27.5527ZM24.4434 27.4336L24.9712 27.5003C25.0556 27.9454 24.9993 28.7142 24.7202 29.1521L24.1056 28.9712C24.3753 28.5999 24.502 27.8359 24.4434 27.4336ZM23.3432 27.298L23.9836 27.3741C24.0469 27.7311 23.9273 28.4904 23.6857 28.8522L23.0336 28.6617C23.2939 28.3118 23.3877 27.6955 23.3432 27.298ZM20.7511 27.1242C20.4532 27.2219 20.3218 27.0029 20.3336 26.8173C20.9177 26.6006 21.178 26.741 21.3493 26.8506C21.5065 26.9505 21.6378 27.2361 21.8489 27.4146C21.8138 27.6574 21.7411 28.0096 21.6542 28.2452C21.0561 28.0906 21.0256 27.555 21.2484 27.229C21.124 27.0814 20.9928 27.0433 20.7511 27.1242ZM20.3336 28.3071C20.3336 28.3071 20.5118 28.3833 20.737 28.4C20.7112 28.5261 20.615 28.6451 20.4626 28.6118C20.3359 28.5832 20.2796 28.4262 20.3336 28.3071ZM19.7447 26.5696C19.597 26.4697 19.6627 26.2507 19.8269 26.2507C20.0075 26.2555 20.2467 26.4626 20.4837 26.5649C20.4837 26.5649 19.862 26.6506 19.7447 26.5696ZM20.3523 27.8311C20.4814 27.9573 20.8684 27.9097 20.8684 27.9097L20.8825 27.9883C20.7135 28.2167 20.2445 28.1144 20.3523 27.8311ZM20.8731 27.5717C20.5963 27.6836 20.3124 27.5312 20.3992 27.3503C20.5283 27.4693 20.8872 27.4098 20.8872 27.4098L20.8731 27.5717ZM21.2813 24.3038L20.7511 26.2626L20.9318 23.1019L21.7528 22.3902L22.1704 23.3209L21.1146 26.3912L21.3939 24.3253C21.4196 24.1777 21.3048 24.1611 21.2813 24.3038ZM21.3188 26.6791C21.3188 26.6791 21.9099 26.6506 22.0765 26.7149C22.1985 26.7673 22.1163 26.9767 21.9568 26.9529C21.7903 26.9314 21.3188 26.6791 21.3188 26.6791ZM22.2454 27.1552L22.8881 27.2361C22.9374 27.5932 22.8458 28.1977 22.616 28.5356L21.9943 28.3524C22.1586 27.9549 22.1985 27.5812 22.2454 27.1552ZM32.6207 35.8496C32.6207 37.3633 31.931 38.5129 30.784 39.1508L31.1945 38.3035H30.7957L30.2678 39.3888C29.7213 39.5982 29.102 39.7148 28.4171 39.7148C26.3246 39.7148 25.7711 39.8006 24.9969 40.5836C24.2204 39.8006 23.6669 39.7148 21.5768 39.7148C20.8966 39.7148 20.2773 39.603 19.7331 39.3936H19.7471L20.2749 38.3035H19.8785L19.4164 39.2579C19.3061 39.2055 19.1982 39.1484 19.0949 39.0865L19.475 38.3035H19.0808L18.7995 38.8865C17.9034 38.2178 17.3755 37.1705 17.3755 35.8496V31.0894H32.616V35.8496H32.6207ZM33.0453 21.4287C32.8083 22.0523 32.6183 22.7282 32.6183 23.4042V30.6634H31.7856C31.4079 30.2922 31.0888 29.0545 31.0888 29.0545C30.8825 29.4996 31.1194 30.4017 31.3399 30.6634H30.2678C30.0029 30.2994 29.7729 29.0092 29.7729 29.0092C29.4516 29.3805 29.6556 30.3826 29.855 30.6634H29.142C29.0973 30.1469 29.2428 29.5853 29.2428 29.5853C28.8698 29.5163 28.4734 29.3163 28.4757 28.8974C28.6634 29.0758 28.7408 29.0735 29.0012 29.0687L29.3037 28.826C28.2998 28.8593 28.2529 27.7406 29.0504 27.2171C28.2552 27.2432 27.6617 26.7625 27.9503 25.9056C27.385 25.6082 27.1855 24.6371 27.6031 24.211C27.3006 23.8778 27.2512 23.2233 27.4436 22.7782C27.0425 22.7782 26.5921 22.6163 26.3411 22.3378C26.3223 22.3474 26.2988 22.3545 26.2777 22.3617C26.7797 22.1546 27.2043 21.8309 27.4905 21.431H33.0453V21.4287ZM30.0099 17.9348C29.1842 18.08 28.4734 19.1057 27.8916 20.0317L27.8259 20.1388H27.2043L27.202 20.2482C27.1386 20.9623 26.4701 21.9309 24.9969 21.9309C24.3167 21.9309 23.803 21.7191 23.4511 21.431C23.1461 21.1788 22.9537 20.867 22.8599 20.5695C22.8248 20.4624 22.8036 20.3529 22.7942 20.2482L22.7896 20.1388H22.1727L22.1069 20.0317C21.5228 19.1081 20.812 18.0823 19.9887 17.9348L22.2383 16.6091L25.0016 18.1323L27.7603 16.6091L30.0099 17.9348ZM27.4342 15.9545L25.2315 17.1303V12.3773L28.2248 11.3443L27.4342 15.9545ZM24.9993 11.8585L21.727 10.547C22.0037 9.88062 23.2869 9.31172 24.9993 9.31172C26.7093 9.31172 27.9901 9.88062 28.267 10.547L24.9993 11.8585Z" fill="black"/>
<path fill-rule="evenodd" clip-rule="evenodd" d="M32.2712 26.1198L32.2782 25.7556C31.178 25.7294 30.9247 24.4132 30.9247 24.4132C30.6033 25.3819 31.4431 26.1055 32.2712 26.1198Z" fill="black"/>
<path fill-rule="evenodd" clip-rule="evenodd" d="M30.8827 28.3499L30.7725 28.0048C29.8342 28.2475 29.3486 26.7386 29.3486 26.7386C29.0484 27.8358 30.0945 28.6117 30.8827 28.3499Z" fill="black"/>
<path fill-rule="evenodd" clip-rule="evenodd" d="M31.5338 26.9505C30.4125 27.1314 29.9528 25.8081 29.9528 25.8081C29.8285 26.5293 30.2883 27.26 31.0319 27.3361C30.863 28.2762 31.7239 28.7594 32.4698 28.4238L32.3619 28.0953C31.7145 28.3167 31.107 27.6669 31.5338 26.9505Z" fill="black"/>
<path fill-rule="evenodd" clip-rule="evenodd" d="M30.863 23.1734L30.8724 22.8093C29.3922 22.4998 29.5166 21.4669 29.5166 21.4669C29.1976 22.4403 30.0372 23.1591 30.863 23.1734Z" fill="black"/>
<path fill-rule="evenodd" clip-rule="evenodd" d="M21.4851 38.3035L20.9551 39.3934H21.3538L21.8817 38.3035H21.4851Z" fill="black"/>
<path fill-rule="evenodd" clip-rule="evenodd" d="M22.2847 38.3035L21.7568 39.3934H22.1579L22.681 38.3035H22.2847Z" fill="black"/>
<path fill-rule="evenodd" clip-rule="evenodd" d="M25.4887 38.3035L24.9609 39.3934H25.3574L25.8874 38.3035H25.4887Z" fill="black"/>
<path fill-rule="evenodd" clip-rule="evenodd" d="M26.2912 38.3035L25.7588 39.3934H26.1599L26.6853 38.3035H26.2912Z" fill="black"/>
<path fill-rule="evenodd" clip-rule="evenodd" d="M24.6892 38.3035L24.1592 39.3934H24.5579L25.0857 38.3035H24.6892Z" fill="black"/>
<path fill-rule="evenodd" clip-rule="evenodd" d="M29.3691 39.3934H29.7679L30.2957 38.3035H29.8969L29.3691 39.3934Z" fill="black"/>
<path fill-rule="evenodd" clip-rule="evenodd" d="M23.0873 38.3035L22.5596 39.3934H22.9583L23.4861 38.3035H23.0873Z" fill="black"/>
<path fill-rule="evenodd" clip-rule="evenodd" d="M23.8842 38.3035L23.3564 39.3934H23.7576L24.2853 38.3035H23.8842Z" fill="black"/>
<path fill-rule="evenodd" clip-rule="evenodd" d="M22.0745 32.4436C22.0018 32.4436 21.9385 32.5151 21.9385 32.6079C21.9385 32.6983 22.0018 32.7721 22.0745 32.7721C22.1497 32.7721 22.2153 32.6983 22.2153 32.6079C22.213 32.5151 22.1497 32.4436 22.0745 32.4436Z" fill="black"/>
<path fill-rule="evenodd" clip-rule="evenodd" d="M24.9993 7.84087C26.6414 7.84087 27.9573 8.39307 28.6821 8.98566C28.6821 8.98566 28.9004 7.66239 29.6346 6.5009L28.3115 6.65081L27.6195 5.15617L26.2895 5.8583L24.9993 4.55872L23.7092 5.8583L22.3744 5.15617L21.6824 6.65081L20.3594 6.5009C21.096 7.66239 21.3117 8.98566 21.3117 8.98566C22.039 8.39307 23.3573 7.84087 24.9993 7.84087ZM21.9099 7.24584L22.541 5.88917L23.7092 6.51993L24.9993 5.22753L26.2895 6.51993L27.4577 5.88917L28.0817 7.24584L28.8582 7.12446C28.6587 7.50286 28.5085 7.83368 28.3702 8.29781C27.5211 7.79561 26.259 7.40771 24.9993 7.40771C23.7349 7.40771 22.4753 7.79561 21.6261 8.29781C21.4854 7.83368 21.3376 7.50286 21.1358 7.12446L21.9099 7.24584Z" fill="black"/>
<path fill-rule="evenodd" clip-rule="evenodd" d="M26.3496 5.16795C26.5419 5.18465 26.7131 5.03706 26.7295 4.84431C26.7483 4.64914 26.4668 4.13025 26.4668 4.13025C26.4668 4.13025 26.047 4.58963 26.0329 4.7848C26.0141 4.9752 26.1595 5.14892 26.3496 5.16795Z" fill="black"/>
<path fill-rule="evenodd" clip-rule="evenodd" d="M28.5172 5.9654C28.6885 6.05822 28.8973 5.98918 28.9888 5.81538C29.0825 5.6441 29.0215 5.05615 29.0215 5.05615C29.0215 5.05615 28.4633 5.31085 28.3719 5.48456C28.2827 5.65594 28.3484 5.87014 28.5172 5.9654Z" fill="black"/>
<path fill-rule="evenodd" clip-rule="evenodd" d="M23.6456 5.16795C23.8403 5.14892 23.9833 4.97753 23.967 4.7848C23.9482 4.58963 23.533 4.13025 23.533 4.13025C23.533 4.13025 23.2538 4.65148 23.2702 4.84431C23.2843 5.03706 23.4556 5.18465 23.6456 5.16795Z" fill="black"/>
<path fill-rule="evenodd" clip-rule="evenodd" d="M21.4795 5.9654C21.6508 5.87014 21.714 5.65594 21.6249 5.48456C21.5358 5.31085 20.9751 5.05615 20.9751 5.05615C20.9751 5.05615 20.9165 5.6441 21.0104 5.81538C21.0971 5.98918 21.3082 6.05822 21.4795 5.9654Z" fill="black"/>
<path fill-rule="evenodd" clip-rule="evenodd" d="M47.4828 18.0564C47.945 17.8897 48.3014 17.4423 48.4798 17.0282C47.3046 16.8568 44.1823 15.5263 41.6161 16.6093C42.5779 15.6835 43.4411 15.5645 43.5231 14.2315C43.9219 14.522 44.5952 14.6861 44.9753 13.9936C44.7102 13.2011 44.0415 13.8436 43.9478 13.6247C43.8164 13.32 44.7898 13.7175 44.9987 12.6869C44.241 12.4228 44.0158 13.0511 43.8797 12.9059C43.7555 12.7678 44.3606 12.5037 43.9149 11.673C43.1267 12.1419 43.5372 12.6678 43.3707 12.7273C43.1689 12.8083 43.3285 12.1633 42.4559 12.1942C42.369 13.1439 43.2746 13.1748 43.1267 13.3247C42.9462 13.508 42.7115 12.7797 42.0524 13.1486C42.0641 13.915 42.6763 14.3363 43.3074 14.1554C43.2042 15.612 41.8858 15.3407 40.9053 16.9829C42.9837 18.0636 43.9243 19.9486 45.2027 21.2528C45.625 20.9482 46.3475 19.5963 46.3475 19.5963C47.7314 20.6839 48.7049 19.601 48.7049 19.601C48.2288 19.106 48.21 18.73 47.4828 18.0564ZM45.4655 18.3206C45.6085 18.6418 45.8925 19.7629 45.2145 20.6173C44.4427 19.0535 43.3824 17.7136 42.5239 17.1353C42.3362 17.0115 42.6271 16.795 43.1572 16.7234C44.7547 16.4165 46.6289 17.1019 47.5205 17.3423C47.1052 17.6565 46.7674 17.7993 46.3428 17.8516C46.9902 18.4039 47.4641 18.8704 47.7971 19.3892C47.1708 19.5487 46.8166 19.1464 45.4655 18.3206Z" fill="black"/>
<path fill-rule="evenodd" clip-rule="evenodd" d="M32.1216 42.6304V40.8502C30.7658 41.4809 29.0416 41.9926 26.8226 42.1949L26.7217 42.8304C26.9093 42.8566 27.1485 42.8804 27.4676 42.9018C26.6466 43.016 25.584 43.0708 25.0021 43.0708C24.4181 43.0708 23.3579 43.016 22.5345 42.9018C22.8511 42.8804 23.0904 42.8566 23.278 42.8304L23.1772 42.1949C20.9581 41.9926 19.2316 41.4809 17.8781 40.8502V42.6304L16.0391 43.3968C17.402 44.1156 18.9689 44.7012 20.7798 45.1747L20.564 45.9198C21.6009 46.2292 23.2593 46.5433 24.9974 46.5433C26.7358 46.5433 28.3918 46.2268 29.431 45.9198L29.2175 45.1747C31.0262 44.7012 32.5978 44.1156 33.9606 43.3968L32.1216 42.6304ZM17.0219 43.4373L18.2629 42.9304V41.4809C19.0604 41.7926 20.1066 42.1164 21.6079 42.4329L20.9042 44.7583C19.3723 44.4012 18.0705 43.9205 17.0219 43.4373ZM24.9998 46.1172C23.5994 46.1172 22.2319 45.9055 21.0637 45.6127L21.8073 43.1731C22.2999 43.2897 23.5337 43.442 24.9998 43.442C26.4683 43.442 27.6951 43.2874 28.1901 43.1731L28.9361 45.6127C27.7632 45.9055 26.398 46.1172 24.9998 46.1172ZM29.0979 44.7583L28.3942 42.4329C29.8955 42.1187 30.9417 41.7926 31.7393 41.4809V42.9304L32.9778 43.4373C31.9293 43.9205 30.6321 44.4012 29.0979 44.7583Z" fill="black"/>
<path fill-rule="evenodd" clip-rule="evenodd" d="M3.6505 19.5963C3.6505 19.5963 4.37298 20.9482 4.79295 21.2528C6.07373 19.9509 7.01668 18.0659 9.09269 16.9829C8.10973 15.3407 6.79143 15.6168 6.69292 14.1554C7.32388 14.3363 7.93387 13.9126 7.94795 13.1486C7.28635 12.7797 7.0519 13.5128 6.87356 13.3247C6.72575 13.17 7.62888 13.1439 7.54444 12.1942C6.67185 12.1657 6.83134 12.8083 6.62725 12.7273C6.46297 12.6678 6.87356 12.1395 6.08311 11.673C5.63978 12.506 6.24729 12.7678 6.12064 12.9059C5.98681 13.0511 5.75696 12.4251 5.00164 12.6869C5.20565 13.7175 6.18392 13.32 6.05248 13.6247C5.95866 13.8436 5.29257 13.2011 5.02979 13.9936C5.40515 14.6885 6.08072 14.5243 6.47705 14.2339C6.56157 15.5692 7.42248 15.681 8.38658 16.6093C5.81794 15.5263 2.69578 16.8568 1.51578 17.0305C1.69647 17.4423 2.05305 17.8897 2.51515 18.0516C1.78792 18.7323 1.76914 19.1083 1.29297 19.601C1.29297 19.601 2.26409 20.6839 3.6505 19.5963ZM2.1961 19.3916C2.53152 18.8728 3.00298 18.4039 3.65519 17.854C3.22823 17.7993 2.89279 17.6565 2.47522 17.3423C3.36896 17.1019 5.24566 16.4142 6.84542 16.7234C7.37088 16.795 7.6664 17.0115 7.47408 17.1353C6.61556 17.7136 5.55286 19.0535 4.78108 20.6173C4.1056 19.7629 4.39174 18.6442 4.53017 18.3229C3.18132 19.1464 2.82951 19.5487 2.1961 19.3916Z" fill="black"/>
<path fill-rule="evenodd" clip-rule="evenodd" d="M23.875 18.6035V19.3865C24.14 19.0605 24.6562 19.1248 24.6562 19.1248V20.2553C24.6562 20.2553 24.6374 20.8123 24.445 21.0503H25.0009H25.5569C25.3622 20.8123 25.3457 20.2553 25.3457 20.2553V19.1271C25.3457 19.1271 25.8594 19.0628 26.1246 19.389V18.6058H25.0009H23.875V18.6035Z" fill="black"/>
</svg>
