<svg width="50" height="50" viewBox="0 0 50 50" fill="none" xmlns="http://www.w3.org/2000/svg">
<path d="M25.0001 48.003C37.7043 48.003 48.0031 37.7042 48.0031 25C48.0031 12.2958 37.7043 1.99695 25.0001 1.99695C12.2959 1.99695 1.99707 12.2958 1.99707 25C1.99707 37.7042 12.2959 48.003 25.0001 48.003Z" fill="#DCF5FF"/>
<path d="M25 50C18.3223 50 12.0442 47.3995 7.32236 42.6776C2.60049 37.9558 0 31.6777 0 25C0 18.3223 2.60049 12.0442 7.32236 7.32236C12.0442 2.60049 18.3223 0 25 0C31.6777 0 37.9558 2.60049 42.6776 7.32236C47.3995 12.0442 50 18.3223 50 25C50 31.6777 47.3995 37.9558 42.6776 42.6776C37.9558 47.3995 31.6777 50 25 50ZM25 3.99404C13.4173 3.99404 3.99404 13.4172 3.99404 25C3.99404 36.5828 13.4173 46.006 25 46.006C36.5827 46.006 46.006 36.5828 46.006 25C46.006 13.4172 36.5827 3.99404 25 3.99404Z" fill="#0ACEFA"/>
<path d="M42.6774 7.32231C42.2931 6.93794 41.8973 6.56909 41.4929 6.21313C45.5103 10.7763 47.7061 16.5722 47.7061 22.7064C47.7061 29.3841 45.1056 35.6622 40.3837 40.384C35.6618 45.1059 29.3838 47.7064 22.7061 47.7064C16.5719 47.7064 10.7761 45.5106 6.21289 41.4933C6.56885 41.8977 6.9376 42.2933 7.32197 42.6777C12.044 47.3995 18.3221 50 24.9998 50C31.6775 50 37.9556 47.3995 42.6774 42.6776C47.3993 37.9557 49.9998 31.6777 49.9998 25C49.9998 18.3222 47.3993 12.0442 42.6774 7.32231Z" fill="#09A6EE"/>
<path d="M24.6826 36.4143L15.7132 30.1295C15.613 30.0592 15.4897 30.1797 15.5576 30.2816L24.5397 43.7535C24.7588 44.0821 25.2417 44.0821 25.4608 43.7535L34.443 30.2816C34.5109 30.1797 34.3876 30.0592 34.2873 30.1295L25.318 36.4143C25.1271 36.5478 24.8733 36.5478 24.6826 36.4143Z" fill="#B1ABB5"/>
<path d="M35.6182 24.5797L25.4852 6.2853C25.2745 5.9049 24.7275 5.9049 24.5168 6.2853L14.3838 24.5797H35.6182Z" fill="#B1ABB5"/>
<path d="M25 24.5797H35.617L25.4842 6.2853C25.3788 6.0951 25.1893 6 25 6V24.5797Z" fill="#786E79"/>
<path d="M24.6829 32.3931L14.5513 25.2939C14.2368 25.0735 14.2368 24.6077 14.5513 24.3873L24.6829 17.2881C24.8735 17.1545 25.1275 17.1545 25.3182 17.2881L35.4498 24.3873C35.7643 24.6077 35.7643 25.0735 35.4498 25.2939L25.3182 32.3931C25.1275 32.5267 24.8735 32.5267 24.6829 32.3931Z" fill="#786E79"/>
<path d="M25.3176 32.3931L35.4492 25.2939C35.7637 25.0735 35.7637 24.6077 35.4492 24.3873L25.3176 17.2881C25.2223 17.2213 25.1112 17.1879 25 17.1879V32.4932C25.1112 32.4933 25.2223 32.4599 25.3176 32.3931Z" fill="#554E57"/>
<path d="M32.6618 23.8151C32.826 24.0548 32.7801 24.3989 32.5236 24.5797H35.6169L25.4842 6.2853C25.3788 6.0951 25.1893 6 25 6V9.98192L32.6618 23.8151Z" fill="#554E57"/>
<path d="M25.4605 43.7534L34.4426 30.2814C34.5105 30.1796 34.3873 30.0591 34.287 30.1294L25.3176 36.4142C25.2223 36.481 25.1112 36.5144 25 36.5144V43.9999C25.1755 44 25.3511 43.9178 25.4605 43.7534Z" fill="#554E57"/>
<path d="M35.4492 24.3874L31.4121 21.5587L32.6619 23.8152C32.8264 24.0553 32.7802 24.4004 32.5225 24.5809L25 29.8518V32.4935C25.1112 32.4935 25.2222 32.4601 25.3176 32.3933L35.4492 25.2941C35.7637 25.0737 35.7637 24.6078 35.4492 24.3874Z" fill="#453E43"/>
<path d="M34.287 30.1294L29.5492 33.4491L25 40.2724V44C25.1755 44 25.351 43.9178 25.4605 43.7535L34.4426 30.2815C34.5106 30.1796 34.3873 30.0591 34.287 30.1294Z" fill="#453E43"/>
</svg>
