<svg width="21" height="21" viewBox="0 0 21 21" fill="none" xmlns="http://www.w3.org/2000/svg">
<path fill-rule="evenodd" clip-rule="evenodd" d="M13.0356 17.7366C12.614 18.0933 12.5614 18.7243 12.9182 19.1459C13.2749 19.5675 13.9059 19.6201 14.3275 19.2634L18.1457 16.0326L19.0479 15.2692L18.1457 14.5058L14.3275 11.2751C13.9059 10.9183 13.2749 10.9709 12.9182 11.3925C12.5614 11.8141 12.614 12.4451 13.0356 12.8018L14.7698 14.2692L3.49966 14.2692C2.94737 14.2692 2.49966 14.7169 2.49966 15.2692C2.49966 15.8215 2.94737 16.2692 3.49966 16.2692L14.7698 16.2692L13.0356 17.7366Z" fill="black"/>
<path fill-rule="evenodd" clip-rule="evenodd" d="M7.96406 3.26325C8.38566 2.90651 8.43825 2.27553 8.0815 1.85392C7.72476 1.43232 7.09378 1.37973 6.67217 1.73648L2.85399 4.96725L1.95181 5.73064L2.85399 6.49402L6.67217 9.72479C7.09378 10.0815 7.72476 10.029 8.0815 9.60735C8.43824 9.18574 8.38566 8.55476 7.96406 8.19802L6.22988 6.73064L17.5 6.73064C18.0523 6.73064 18.5 6.28292 18.5 5.73064C18.5 5.17836 18.0523 4.73064 17.5 4.73064L6.22987 4.73064L7.96406 3.26325Z" fill="black"/>
</svg>
