<svg width="18" height="18" viewBox="0 0 18 18" fill="none" xmlns="http://www.w3.org/2000/svg">
<path fill-rule="evenodd" clip-rule="evenodd" d="M11.5356 16.2364C11.114 16.5932 11.0614 17.2242 11.4182 17.6458C11.7749 18.0674 12.4059 18.12 12.8275 17.7632L16.6457 14.5324L17.5479 13.7691L16.6457 13.0057L12.8275 9.7749C12.4059 9.41816 11.7749 9.47074 11.4182 9.89234C11.0614 10.314 11.114 10.9449 11.5356 11.3017L13.2698 12.7691L1.99966 12.7691C1.44737 12.7691 0.999659 13.2168 0.999659 13.7691C0.999659 14.3213 1.44737 14.7691 1.99966 14.7691L13.2698 14.7691L11.5356 16.2364Z" fill="#6DE0F6"/>
<path fill-rule="evenodd" clip-rule="evenodd" d="M6.46406 1.76322C6.88566 1.40648 6.93825 0.775499 6.5815 0.353892C6.22476 -0.0677141 5.59378 -0.120296 5.17217 0.236448L1.35399 3.46722L0.451807 4.23061L1.35399 4.99399L5.17217 8.22476C5.59378 8.5815 6.22476 8.52892 6.5815 8.10732C6.93824 7.68571 6.88566 7.05473 6.46406 6.69799L4.72988 5.23061L16 5.23061C16.5523 5.23061 17 4.78289 17 4.23061C17 3.67832 16.5523 3.23061 16 3.23061L4.72987 3.23061L6.46406 1.76322Z" fill="#6DE0F6"/>
</svg>
