<svg width="50" height="50" viewBox="0 0 50 50" fill="none" xmlns="http://www.w3.org/2000/svg">
<path fill-rule="evenodd" clip-rule="evenodd" d="M14.4336 24.7081C14.619 14.9227 22.4103 7 32.2143 7C42.0085 7 50.1273 15.1162 49.9984 25.0651C49.9984 35.014 42.0085 43.1303 32.2143 43.1303C22.5366 43.1303 14.6205 35.2059 14.4336 25.4193V38.68H8.11882L0 12.3678H14.4336V24.7081ZM25.5131 25.0651C25.5131 28.7305 28.6059 31.7413 32.2143 31.7413C35.9516 31.7413 38.7867 28.7305 38.9156 25.0651C38.9156 21.3997 35.9516 18.3889 32.2143 18.3889C28.477 18.3889 25.5131 21.3997 25.5131 25.0651Z" fill="#8B3FFD"/>
</svg>
