<svg width="50" height="50" viewBox="0 0 50 50" fill="none" xmlns="http://www.w3.org/2000/svg">
<path fill-rule="evenodd" clip-rule="evenodd" d="M34.8809 9.04859L39.6123 5.49727C35.2877 1.93129 29.8894 -0.00989879 24.3247 3.79601e-05V0.00232283C21.134 0.000595895 17.9744 0.639526 15.0265 1.88261C12.4475 2.97013 10.0749 4.50135 8.01139 6.40639L8.01069 6.40561C5.48551 8.72588 3.46747 11.5607 2.08744 14.7263C0.708234 17.89 -0.00292528 21.3134 9.0436e-06 24.7748C7.53833e-06 24.7782 6.78468e-06 24.7816 6.78468e-06 24.785C-0.00238197 28.0383 0.626026 31.26 1.8492 34.2653C2.91737 36.8899 4.42075 39.3043 6.29081 41.4043L6.29053 41.4046C8.56924 43.9757 11.3532 46.0302 14.4619 47.4352C17.5705 48.8401 20.9344 49.564 24.3356 49.5599V49.5578H24.3403C27.5353 49.5612 30.6992 48.9218 33.6507 47.6762C36.2276 46.5886 38.5981 45.0577 40.6598 43.1533L40.6623 43.1561C43.1867 40.8353 45.204 38.0003 46.5833 34.8348C47.9628 31.6692 48.6733 28.2438 48.6691 24.7806C48.6721 23.2918 48.5442 21.8056 48.2868 20.34L43.049 24.2708V24.7806C43.0504 27.4432 42.5022 30.0764 41.4403 32.5094C40.5055 34.6511 39.1907 36.5957 37.5648 38.2469L37.5641 38.2462C37.491 38.3209 37.4173 38.395 37.3431 38.4684C37.1927 38.6161 37.0397 38.7614 36.8843 38.9041L36.8856 38.9056C35.3013 40.3696 33.4798 41.5469 31.4996 42.3838C29.2303 43.3428 26.7973 43.836 24.3403 43.8348C24.2044 43.8348 24.0688 43.8348 23.9335 43.8328C23.8284 43.8305 23.7235 43.8273 23.6185 43.8233C23.547 43.8198 23.4755 43.8153 23.404 43.8095L23.4038 43.8137C21.1081 43.6977 18.8504 43.1509 16.7451 42.1982C14.6402 41.2457 12.7291 39.9059 11.1063 38.2489L11.1102 38.245C9.36931 36.4794 7.98823 34.3807 7.04638 32.0698C6.10474 29.7594 5.62068 27.2823 5.62199 24.781H5.62201C5.62201 24.7766 5.622 24.7723 5.622 24.768C5.62202 24.7318 5.62214 24.6957 5.62235 24.6596C5.63764 22.0385 6.18517 19.4484 7.231 17.0523C8.1668 14.9084 9.48318 12.9619 11.1113 11.3096L11.1157 11.314C12.8497 9.54064 14.9108 8.13378 17.1805 7.17434C19.4503 6.2149 21.8838 5.72178 24.3414 5.72335C24.6548 5.72335 24.9661 5.73504 25.2757 5.7506L25.2759 5.74655C28.7096 5.92103 32.0357 7.06092 34.8809 9.04859ZM46.5137 14.5539C45.7323 12.8022 44.7536 11.1487 43.5976 9.62683L24.3467 24.0792L15.0825 18.1655V25.2799L24.3467 31.1936L46.5137 14.5539Z" fill="url(#paint0_linear_360_2876)"/>
<defs>
<linearGradient id="paint0_linear_360_2876" x1="2.0944" y1="25.4737" x2="8.99109" y2="7.85547" gradientUnits="userSpaceOnUse">
<stop offset="0.07" stop-color="#A2CC39"/>
<stop offset="0.26" stop-color="#81C45E"/>
<stop offset="0.92" stop-color="#0FA7DF"/>
</linearGradient>
</defs>
</svg>
