<svg width="50" height="50" viewBox="0 0 50 50" fill="none" xmlns="http://www.w3.org/2000/svg">
<g clip-path="url(#clip0_360_2898)">
<path fill-rule="evenodd" clip-rule="evenodd" d="M49.409 48.7965C49.2687 48.4209 49.0602 48.1141 48.8518 47.8073C48.725 47.6207 48.5982 47.4341 48.4869 47.2322C47.7725 46.3066 46.9405 45.4977 46.0982 44.6997C45.9465 44.6472 45.8397 44.5501 45.7328 44.453L45.7327 44.4529C45.6321 44.3615 45.5313 44.27 45.393 44.2152C45.2749 44.0675 45.1129 43.9633 44.9511 43.8592L44.9509 43.8591C44.8605 43.8009 44.7701 43.7428 44.6875 43.6771C44.2162 43.3183 43.6966 43.0084 43.1691 42.7057C42.2566 42.1193 41.1368 41.74 40.0167 41.3606L40.0166 41.3606C39.9097 41.3243 39.8027 41.2881 39.696 41.2517C38.3662 40.9376 36.9681 40.6922 35.5193 40.4973L35.4139 40.4821C34.0108 40.2792 32.6098 40.0766 31.5585 39.527C31.1241 39.4013 30.77 39.1955 30.4158 38.9897C30.2564 38.8971 30.0969 38.8044 29.9301 38.719C29.7888 38.6248 29.6431 38.5352 29.4974 38.4456C29.1295 38.2192 28.7618 37.993 28.4657 37.6947C28.1073 37.4809 27.8446 37.1726 27.5817 36.8642C27.4632 36.7251 27.3446 36.5861 27.2173 36.4556C27.1567 36.339 27.0787 36.2398 27.0007 36.1406C26.8963 36.0078 26.792 35.875 26.7295 35.701C26.6349 35.6656 26.5874 35.5833 26.5399 35.501C26.5149 35.4577 26.49 35.4144 26.4581 35.378C26.4182 35.3351 26.3943 35.2766 26.3703 35.2182C26.3315 35.1233 26.2927 35.0286 26.1858 35.0011C26.1049 35.5759 26.124 36.253 26.1858 36.8333C26.2255 36.9698 26.2511 37.12 26.2767 37.2704L26.2767 37.2705L26.2767 37.2705C26.2982 37.3967 26.3197 37.523 26.3495 37.6414C26.3645 37.717 26.3972 37.8065 26.4308 37.8989C26.498 38.083 26.5691 38.2781 26.5121 38.3955C22.1558 38.1778 18.9746 36.7939 16.2031 35.0011C14.836 34.0949 13.6621 32.9984 12.5688 31.821C12.4457 31.6535 12.3204 31.4884 12.1952 31.3232L12.1951 31.3231L12.1951 31.3231C11.8306 30.8425 11.4664 30.3622 11.1567 29.8267C10.8521 29.3301 10.5851 28.7955 10.3181 28.2608C10.2015 28.0273 10.0849 27.7937 9.96513 27.5633C9.32485 25.9351 8.72208 24.2707 8.49932 22.2288C8.20353 20.3271 8.28161 17.903 8.71536 16.1389C8.84241 15.3593 9.07316 14.6837 9.30386 14.0083C9.36178 13.8388 9.4197 13.6692 9.47597 13.498C9.66402 13.1108 9.85095 12.7217 10.0175 12.3128C10.1148 12.1745 10.1932 12.0172 10.2715 11.8599L10.2715 11.8598C10.3848 11.6324 10.4981 11.4049 10.6689 11.2346C11.4718 9.75093 12.6533 8.64218 13.8706 7.57011C15.1802 6.60756 16.6793 5.83262 18.4818 5.36093C20.2073 4.96846 22.5717 4.9037 24.4511 5.30673C28.2477 6.07917 31.1205 7.77163 33.512 9.94161C35.9441 12.0688 37.8132 14.758 39.0999 18.0251C40.4297 21.1395 40.8853 25.972 39.696 29.5034C39.211 29.231 38.7232 28.9609 38.2304 28.6949C38.1445 28.6702 38.0589 28.6451 37.9733 28.62L37.973 28.6199C37.4729 28.4731 36.9729 28.3264 36.3871 28.264C35.5602 28.2513 34.7562 28.2626 34.2161 28.5342C35.2938 28.4261 36.1607 28.7157 36.8212 28.9653C37.2177 29.1146 37.4393 29.2213 37.7427 29.3956C38.3457 29.7414 38.8769 30.0668 39.3159 30.5271C40.5884 31.6359 41.4973 33.1038 41.9213 35.0544C41.9249 35.1111 41.9904 35.097 41.9747 35.0011C42.0341 34.9899 42.0574 34.9445 42.081 34.8986L42.0839 34.893C42.1019 34.8715 42.1204 34.8504 42.1388 34.8292C42.1959 34.7636 42.2531 34.6979 42.3013 34.6233C42.4448 34.4605 42.5828 34.292 42.6799 34.0844C42.9698 33.7428 43.213 33.3545 43.4394 32.9526C43.8105 32.4188 44.1191 31.823 44.4278 31.227L44.4278 31.2269C44.5493 30.9925 44.6708 30.7579 44.7961 30.5271C45.5707 28.7816 46.1981 26.8907 46.587 24.7615C47.3628 20.0188 46.4387 15.5171 44.7961 12.2047C43.1167 8.86093 40.7717 6.17839 37.7427 4.17518C34.6857 2.18281 31.1023 0.7116 26.1858 0.564285C26.1733 0.512138 26.1525 0.522877 26.1199 0.53981C26.0951 0.552662 26.0634 0.569082 26.0232 0.564285C23.4269 0.477007 21.325 0.841962 19.2421 1.37285C19.0008 1.45415 18.7559 1.53192 18.511 1.60968C17.7829 1.84084 17.0548 2.07202 16.4205 2.39628C15.8181 2.59079 15.2954 2.86422 14.7728 3.13762C14.4425 3.31038 14.1123 3.48312 13.762 3.63595C13.5966 3.78874 13.3922 3.90307 13.1879 4.01737C12.987 4.12973 12.7862 4.24207 12.6225 4.39087C12.4101 4.49563 12.2256 4.62821 12.0413 4.76073L12.0413 4.76074C11.848 4.89967 11.6548 5.03855 11.4295 5.14524C11.1365 5.40082 10.8333 5.64595 10.5302 5.89102C10.1153 6.22643 9.7005 6.56174 9.31226 6.92359C8.91883 7.27719 8.55777 7.6635 8.19667 8.04984L8.19666 8.04985C7.93954 8.32496 7.6824 8.60008 7.41354 8.86343C7.32644 9.07036 7.17535 9.2149 7.02422 9.35949L6.97951 9.40238C6.86449 9.61084 6.72345 9.79457 6.54575 9.94161C6.5089 10.0737 6.42978 10.164 6.35058 10.2545C6.27822 10.3371 6.2058 10.4198 6.16545 10.5345C6.07815 10.5984 6.0235 10.6947 5.96881 10.791C5.9064 10.901 5.84393 11.0111 5.73282 11.0732C5.63051 11.3147 5.49176 11.5192 5.35311 11.7236C5.2369 11.8949 5.12077 12.0661 5.02622 12.2589C4.91988 12.4328 4.82248 12.6155 4.72507 12.7981L4.72506 12.7981L4.72505 12.7982C4.59715 13.038 4.46923 13.2779 4.32102 13.498C4.21489 13.7462 4.10581 13.9916 3.99674 14.2368C3.70691 14.8886 3.41714 15.5403 3.18291 16.2462C2.8527 17.1948 2.56306 18.1827 2.36857 19.2642C2.15729 20.2784 1.9642 21.5918 1.98827 22.6597C1.88482 22.9638 1.92644 23.4538 1.96203 23.8729C1.97265 23.9979 1.98274 24.1167 1.98827 24.2223C1.99052 24.2663 1.97198 24.2983 1.95584 24.3261L1.95584 24.3261C1.94398 24.3465 1.93342 24.3647 1.93342 24.3838C1.93256 24.696 1.98775 25.0532 2.03473 25.3572C2.06395 25.5462 2.09 25.7148 2.09741 25.8392C2.21242 27.018 2.41586 28.1095 2.74776 29.0726C2.8832 29.761 3.11829 30.3507 3.35329 30.9402C3.48244 31.2642 3.61157 31.5881 3.72412 31.9283C3.90907 32.235 4.07322 32.5624 4.23738 32.8898C4.50615 33.4259 4.77494 33.962 5.13508 34.4074C5.50798 35.1263 6.0079 35.7195 6.50784 36.3127L6.50805 36.313C6.5933 36.4141 6.67856 36.5153 6.76319 36.6171C6.84077 36.6979 6.91807 36.7791 6.99539 36.8602C7.55114 37.4434 8.10744 38.0272 8.77049 38.5033C10.1518 39.6999 11.7774 40.6547 13.5443 41.4674C16.8548 43.0567 21.7999 44.1096 26.2407 43.8372L26.443 43.8113C27.5127 43.6744 28.5829 43.5375 29.5498 43.2983C30.5049 42.9553 31.6021 42.7488 32.7514 42.5989C35.3694 42.4338 37.6277 42.6662 39.6411 43.2449C41.6868 43.7839 43.443 44.6066 44.9587 45.6712C45.6979 46.1041 46.3274 46.6486 46.9563 47.1926L46.9563 47.1926L47.1288 47.3417C47.5847 47.7371 47.9861 48.1865 48.3874 48.6358C48.598 48.8717 48.8085 49.1075 49.027 49.3354C49.0893 49.5137 49.1884 49.6567 49.2874 49.7995C49.3289 49.8593 49.3703 49.9191 49.409 49.9814C49.4653 50.0407 49.4931 50.1284 49.521 50.2162C49.5753 50.3875 49.6297 50.5591 49.8962 50.5203C50.0649 50.3605 49.9932 50.1466 49.9212 49.9319C49.8838 49.8203 49.8464 49.7085 49.8424 49.6039C49.7606 49.4949 49.7042 49.3608 49.6477 49.2267L49.6477 49.2267C49.5817 49.0698 49.5157 48.913 49.409 48.7965ZM39.2706 34.0301C39.2394 34.0301 39.2226 34.0444 39.206 34.0585C39.1935 34.0693 39.181 34.0799 39.1623 34.0843C39.0658 34.2928 39.1105 34.6208 39.1623 34.839C39.2356 34.9903 39.2972 35.1533 39.3588 35.3163C39.5392 35.7933 39.7195 36.2703 40.1938 36.4556C40.49 36.3608 40.4781 35.958 40.4662 35.5565L40.4641 35.4855C40.3231 34.961 40.1247 34.4929 39.8124 34.1383C39.7526 34.1172 39.6981 34.0928 39.6473 34.0701C39.5032 34.0056 39.3889 33.9545 39.2706 34.0301ZM35.4195 35.5394C35.4299 35.478 35.4747 35.5097 35.4747 35.5394C36.4362 35.6609 36.8778 36.3005 36.9391 37.3178C36.8531 37.8804 36.5358 38.2117 36.0159 38.3418C34.7208 38.3634 33.9834 37.1791 34.4429 35.9705C34.4886 35.9335 34.5319 35.8941 34.5752 35.8546C34.777 35.6711 34.9791 35.4873 35.4195 35.5394Z" fill="#FCB316"/>
</g>
<defs>
<clipPath id="clip0_360_2898">
<rect width="50" height="50" fill="white"/>
</clipPath>
</defs>
</svg>
