<svg width="50" height="50" viewBox="0 0 50 50" fill="none" xmlns="http://www.w3.org/2000/svg">
<path d="M31.5844 25.4061H20.3809V45.294H31.5844V25.4061Z" fill="#FF5A00"/>
<path d="M21.1272 35.3499C21.1272 31.3093 23.0497 27.7231 25.9998 25.406C23.8287 23.7193 21.09 22.7 18.1026 22.7C11.0259 22.7 5.2998 28.3576 5.2998 35.3499C5.2998 42.3422 11.0259 47.9999 18.1026 47.9999C21.09 47.9999 23.8287 46.9806 25.9998 45.2939C23.0456 43.0095 21.1272 39.3906 21.1272 35.3499Z" fill="#EB001B"/>
<path d="M46.699 35.3499C46.699 42.3422 40.9729 47.9999 33.8962 47.9999C30.9088 47.9999 28.1701 46.9806 25.999 45.2939C28.9863 42.9727 30.8716 39.3906 30.8716 35.3499C30.8716 31.3093 28.9491 27.7231 25.999 25.406C28.166 23.7193 30.9047 22.7 33.892 22.7C40.9729 22.7 46.699 28.3945 46.699 35.3499Z" fill="#F79E1B"/>
<path fill-rule="evenodd" clip-rule="evenodd" d="M25.6005 6.41179C25.5756 8.33408 27.3525 9.40682 28.6909 10.0446C30.0661 10.6991 30.528 11.1188 30.5228 11.7039C30.5123 12.5996 29.4257 12.9948 28.4088 13.0102C26.6346 13.0371 25.6031 12.5418 24.783 12.1671L24.144 15.0916C24.9668 15.4625 26.4903 15.7859 28.0702 15.8C31.7786 15.8 34.2048 14.0098 34.218 11.2342C34.2325 7.71176 29.2355 7.51668 29.2696 5.94214C29.2814 5.46479 29.7472 4.95529 30.7681 4.8257C31.2733 4.76032 32.6682 4.71021 34.2495 5.42238L34.8702 2.59294C34.0199 2.29006 32.9267 2 31.566 2C28.0755 2 25.6203 3.8145 25.6005 6.41179ZM40.8343 2.2438C40.1572 2.2438 39.5864 2.63012 39.3318 3.22295L34.0343 15.5921H37.74L38.4775 13.5992H43.006L43.4338 15.5921H46.6999L43.8497 2.2438H40.8343ZM41.3526 5.84972L42.422 10.862H39.4932L41.3526 5.84972ZM21.1075 2.2438L18.1865 15.5921H21.7177L24.6374 2.2438H21.1075ZM15.8835 2.2438L12.2079 11.3291L10.7211 3.60403C10.5467 2.74176 9.85772 2.2438 9.09265 2.2438H3.08401L3 2.6314C4.23354 2.89315 5.635 3.31536 6.48398 3.76707C7.00357 4.04292 7.15193 4.28415 7.32247 4.93991L10.1385 15.5921H13.8706L19.5919 2.2438H15.8835Z" fill="#1A1F71"/>
</svg>
